<svg width="322" height="167" viewBox="0 0 322 167" fill="none" xmlns="http://www.w3.org/2000/svg">
    <path d="M321.99 90.9364L246.423 165.307H217.457L293.026 90.9364H321.99Z" fill="#FF9900"/>
    <path d="M235.237 7.13424L307.149 84.9995H296.835L224.919 7.13424H235.237Z" fill="white" stroke="#FFCD82" stroke-width="13"/>
    <path d="M293.083 91.1007L217.412 165.307L136.452 74.2082L212.121 0L293.083 91.1007Z" fill="#FFCD82"/>
    <path d="M129.394 165.306L122 153.675L114.605 165.306H129.394Z" fill="#F29826"/>
    <path d="M213.324 87.7648L216.113 75.4285L204.349 77.4276L213.324 87.7648Z" fill="#2B292D"/>
    <path d="M195.61 165.306L176.452 134.994L157.292 165.306H195.61Z" fill="black"/>
    <path d="M158.971 125.83H143.174V165.307H158.971V125.83Z" fill="#FFD700"/>
    <path d="M224.433 84.8242L217.08 91.9543L233.342 110.395L240.695 103.265L224.433 84.8242Z" fill="#2B292D"/>
    <path d="M138.805 165.306C138.805 159.323 141.054 153.586 145.057 149.355C149.059 145.125 154.488 142.748 160.149 142.748C165.809 142.748 171.238 145.125 175.241 149.355C179.244 153.586 181.492 159.323 181.492 165.306" fill="#55A603"/>
    <path d="M200.461 72.9605C201.426 72.0364 202.206 70.9245 202.756 69.6883C203.306 68.4521 203.616 67.1158 203.668 65.7556C203.719 64.3955 203.511 63.0382 203.056 61.7612C202.601 60.4842 201.907 59.3125 201.015 58.3131C200.122 57.3137 199.049 56.506 197.855 55.9363C196.661 55.3666 195.37 55.046 194.057 54.9927C192.743 54.9394 191.433 55.1546 190.199 55.6259C188.966 56.0971 187.835 56.8153 186.869 57.7394L200.461 72.9605Z" fill="#2B292D"/>
    <path d="M135.058 164.036C60.583 164.036 0.208923 164.7 0.208923 165.518C0.208923 166.337 60.583 167 135.058 167C209.533 167 269.907 166.337 269.907 165.518C269.907 164.7 209.533 164.036 135.058 164.036Z" fill="black"/>
    </svg>
    