<svg width="70" height="70" viewBox="0 0 70 70" fill="none" xmlns="http://www.w3.org/2000/svg">
<rect width="70" height="70" rx="20" fill="#949494"/>
<g clip-path="url(#clip0_2_426)">
<path d="M20.7143 35V25.6071C20.7422 23.7608 21.1341 21.9382 21.8676 20.2436C22.6011 18.549 23.6618 17.0158 24.9889 15.7318C26.316 14.4479 27.8834 13.4384 29.6013 12.7613C31.3191 12.0841 33.1538 11.7526 35 11.7857C36.8462 11.7526 38.6808 12.0841 40.3987 12.7613C42.1166 13.4384 43.684 14.4479 45.0111 15.7318C46.3382 17.0158 47.3988 18.549 48.1324 20.2436C48.8659 21.9382 49.2578 23.7608 49.2857 25.6071V35M42.1429 53.75C44.0373 53.75 45.8541 52.9974 47.1936 51.6579C48.5332 50.3183 49.2857 48.5015 49.2857 46.6071V38.5714M42.1429 53.75C42.1429 54.934 41.6725 56.0695 40.8353 56.9067C39.9981 57.7439 38.8626 58.2143 37.6786 58.2143H32.3214C31.1374 58.2143 30.0019 57.7439 29.1647 56.9067C28.3275 56.0695 27.8571 54.934 27.8571 53.75C27.8571 52.566 28.3275 51.4305 29.1647 50.5933C30.0019 49.756 31.1374 49.2857 32.3214 49.2857H37.6786C38.8626 49.2857 39.9981 49.756 40.8353 50.5933C41.6725 51.4305 42.1429 52.566 42.1429 53.75ZM15.3571 29.6428H18.9286C19.4022 29.6428 19.8564 29.831 20.1913 30.1659C20.5261 30.5008 20.7143 30.955 20.7143 31.4286V42.1428C20.7143 42.6164 20.5261 43.0707 20.1913 43.4055C19.8564 43.7404 19.4022 43.9286 18.9286 43.9286H15.3571C14.4099 43.9286 13.5015 43.5523 12.8318 42.8825C12.162 42.2127 11.7857 41.3043 11.7857 40.3571V33.2143C11.7857 32.2671 12.162 31.3587 12.8318 30.6889C13.5015 30.0191 14.4099 29.6428 15.3571 29.6428ZM54.6429 43.9286H51.0714C50.5978 43.9286 50.1436 43.7404 49.8087 43.4055C49.4738 43.0707 49.2857 42.6164 49.2857 42.1428V31.4286C49.2857 30.955 49.4738 30.5008 49.8087 30.1659C50.1436 29.831 50.5978 29.6428 51.0714 29.6428H54.6429C55.5901 29.6428 56.4985 30.0191 57.1682 30.6889C57.838 31.3587 58.2143 32.2671 58.2143 33.2143V40.3571C58.2143 41.3043 57.838 42.2127 57.1682 42.8825C56.4985 43.5523 55.5901 43.9286 54.6429 43.9286Z" stroke="black" stroke-width="3" stroke-linecap="round" stroke-linejoin="round"/>
</g>
<defs>
<clipPath id="clip0_2_426">
<rect width="50" height="50" fill="white" transform="translate(10 10)"/>
</clipPath>
</defs>
</svg>
