<svg width="70" height="70" viewBox="0 0 70 70" fill="none" xmlns="http://www.w3.org/2000/svg">
<rect width="70" height="70" rx="20" fill="#ECFFD8"/>
<path d="M27.5375 47.5H17.8125C17.3981 47.5 17.0007 47.3354 16.7076 47.0424C16.4146 46.7493 16.25 46.3519 16.25 45.9375V19.375H13.125C12.7106 19.375 12.3132 19.2104 12.0201 18.9174C11.7271 18.6243 11.5625 18.2269 11.5625 17.8125C11.5625 17.3981 11.7271 17.0007 12.0201 16.7076C12.3132 16.4146 12.7106 16.25 13.125 16.25H56.875C57.2894 16.25 57.6868 16.4146 57.9799 16.7076C58.2729 17.0007 58.4375 17.3981 58.4375 17.8125C58.4375 18.2269 58.2729 18.6243 57.9799 18.9174C57.6868 19.2104 57.2894 19.375 56.875 19.375H53.75V45.9375C53.75 46.3519 53.5854 46.7493 53.2924 47.0424C52.9993 47.3354 52.6019 47.5 52.1875 47.5H42.4813L47.8938 56.875H44.2875L38.875 47.5H31.1437L25.7312 56.875H22.125L27.5375 47.5ZM50.625 19.375H19.375V44.375H50.625V19.375ZM26.7313 36.1063C26.586 36.2515 26.4135 36.3668 26.2237 36.4454C26.0339 36.524 25.8305 36.5645 25.625 36.5645C25.4195 36.5645 25.2161 36.524 25.0263 36.4454C24.8365 36.3668 24.664 36.2515 24.5187 36.1063C24.3735 35.961 24.2582 35.7885 24.1796 35.5987C24.101 35.4089 24.0605 35.2055 24.0605 35C24.0605 34.7945 24.101 34.5911 24.1796 34.4013C24.2582 34.2115 24.3735 34.039 24.5187 33.8937L31.7281 26.6875L37.8531 31.2812L43.1562 24.65C43.2804 24.4789 43.4379 24.3347 43.6194 24.2263C43.8008 24.1178 44.0024 24.0473 44.2119 24.019C44.4214 23.9907 44.6344 24.0052 44.8382 24.0617C45.0419 24.1181 45.232 24.2153 45.3971 24.3474C45.5622 24.4794 45.6987 24.6436 45.7985 24.83C45.8983 25.0163 45.9592 25.221 45.9776 25.4316C45.996 25.6422 45.9715 25.8543 45.9055 26.0551C45.8395 26.256 45.7334 26.4413 45.5938 26.6L38.4 35.5969L32.0219 30.8125L26.7313 36.1031V36.1063Z" fill="black"/>
</svg>
