<svg width="574" height="383" viewBox="0 0 574 383" fill="none" xmlns="http://www.w3.org/2000/svg">
<g clip-path="url(#clip0_2_345)">
<path d="M46.148 135.221C45.7228 139.906 43.8692 144.322 40.8629 147.813C37.8565 151.303 33.8578 153.682 29.461 154.595C25.0643 155.509 20.5043 154.908 16.4588 152.882C12.4133 150.856 9.09823 147.514 7.00637 143.351C6.5569 142.457 6.16568 141.532 5.8354 140.582C4.77302 137.498 4.38466 134.203 4.69907 130.941C5.01348 127.678 6.0226 124.532 7.65175 121.734C9.2809 118.936 11.4884 116.559 14.1107 114.779C16.7331 112.998 19.7032 111.86 22.8012 111.448C25.8993 111.036 29.0459 111.361 32.0081 112.398C34.9704 113.436 37.6725 115.16 39.9143 117.443C42.1562 119.726 43.8805 122.509 44.9595 125.586C46.0386 128.663 46.4447 131.956 46.148 135.221Z" fill="#FFD700" fill-opacity="0.26"/>
<path d="M260.004 288.586C259.734 291.588 258.874 294.498 257.478 297.133C256.083 299.768 254.181 302.07 251.895 303.894C251.146 304.493 250.359 305.039 249.54 305.529C245.486 307.944 240.777 308.86 236.167 308.131C231.558 307.403 227.315 305.071 224.117 301.509C220.919 297.947 218.953 293.361 218.531 288.486C218.11 283.611 219.259 278.729 221.794 274.621C224.329 270.513 228.103 267.417 232.512 265.829C236.921 264.241 241.711 264.252 246.113 265.861C250.515 267.471 254.276 270.585 256.793 274.705C259.31 278.825 260.437 283.713 259.995 288.586H260.004Z" fill="#FFD700" fill-opacity="0.26"/>
<path d="M337.967 217.212C337.833 218.713 337.404 220.168 336.707 221.486C336.01 222.804 335.061 223.956 333.918 224.869C333.542 225.167 333.149 225.44 332.741 225.687C331.528 226.407 330.19 226.864 328.805 227.032C327.421 227.2 326.019 227.074 324.681 226.663C323.344 226.253 322.099 225.564 321.019 224.64C319.939 223.715 319.046 222.572 318.394 221.279C318.17 220.831 317.975 220.368 317.81 219.893C317.279 218.351 317.085 216.703 317.242 215.072C317.399 213.441 317.904 211.867 318.718 210.469C319.533 209.07 320.637 207.881 321.948 206.991C323.259 206.101 324.744 205.531 326.293 205.325C327.842 205.119 329.415 205.282 330.897 205.801C332.378 206.32 333.729 207.182 334.85 208.323C335.971 209.465 336.833 210.856 337.372 212.395C337.912 213.933 338.115 215.58 337.967 217.212Z" fill="#FFD700" fill-opacity="0.26"/>
<path d="M84.0602 362.171C83.9248 363.672 83.495 365.127 82.7977 366.445C82.1004 367.763 81.1509 368.915 80.0089 369.828C79.6342 370.128 79.2408 370.401 78.8314 370.646C77.6183 371.369 76.2791 371.829 74.8934 371.999C73.5077 372.169 72.1036 372.044 70.7646 371.633C69.4255 371.222 68.1788 370.533 67.0983 369.606C66.0178 368.679 65.1257 367.534 64.4748 366.238C64.2487 365.791 64.0536 365.328 63.891 364.852C63.3598 363.31 63.1656 361.662 63.3228 360.031C63.48 358.4 63.9846 356.826 64.7991 355.427C65.6137 354.029 66.7174 352.84 68.0286 351.95C69.3398 351.06 70.8249 350.49 72.3739 350.284C73.9229 350.078 75.4962 350.241 76.9773 350.76C78.4585 351.279 79.8095 352.141 80.9304 353.282C82.0514 354.424 82.9135 355.815 83.453 357.354C83.9925 358.892 84.1956 360.539 84.0472 362.171H84.0602Z" fill="#FFD700" fill-opacity="0.26"/>
<path d="M478.46 112.317C478.326 113.817 477.897 115.272 477.2 116.59C476.504 117.907 475.554 119.058 474.412 119.971C474.037 120.27 473.644 120.543 473.235 120.788C472.022 121.51 470.684 121.969 469.3 122.138C467.916 122.307 466.513 122.183 465.176 121.772C463.838 121.362 462.592 120.674 461.512 119.749C460.432 118.824 459.54 117.681 458.888 116.388C458.664 115.941 458.469 115.479 458.304 115.005C457.773 113.463 457.579 111.815 457.736 110.184C457.893 108.553 458.398 106.979 459.212 105.581C460.027 104.182 461.131 102.993 462.442 102.103C463.753 101.213 465.238 100.643 466.787 100.437C468.336 100.231 469.909 100.394 471.39 100.913C472.872 101.432 474.223 102.294 475.344 103.435C476.465 104.577 477.327 105.968 477.866 107.507C478.406 109.045 478.609 110.692 478.46 112.324V112.317Z" fill="#FFD700" fill-opacity="0.26"/>
<path d="M569.546 53.1236C569.412 54.6239 568.983 56.0787 568.286 57.3961C567.59 58.7134 566.64 59.8648 565.498 60.7774C565.124 61.0772 564.73 61.3503 564.321 61.5949C563.109 62.3172 561.77 62.7765 560.386 62.9455C559.001 63.1145 557.599 62.9897 556.261 62.5786C554.923 62.1675 553.678 61.4785 552.598 60.5524C551.519 59.6263 550.628 58.4819 549.977 57.1872C549.751 56.7417 549.556 56.2795 549.393 55.8043C548.861 54.2623 548.666 52.6142 548.822 50.9822C548.979 49.3501 549.483 47.776 550.297 46.3763C551.111 44.9766 552.215 43.7873 553.527 42.8964C554.838 42.0055 556.324 41.4359 557.874 41.2297C559.423 41.0236 560.997 41.1863 562.479 41.7056C563.96 42.2249 565.312 43.0877 566.433 44.2299C567.554 45.3722 568.416 46.7646 568.955 48.3042C569.494 49.8437 569.696 51.4909 569.546 53.1236Z" fill="#FFD700" fill-opacity="0.26"/>
<path d="M20.7761 64.5005C20.6414 66.0011 20.2118 67.456 19.5145 68.7734C18.8172 70.0908 17.8672 71.242 16.7247 72.1543C14.6417 73.8266 12.0331 74.6091 9.42316 74.3445C7.37395 74.1387 5.42885 73.2995 3.83381 71.933C2.23877 70.5664 1.06541 68.7339 0.462092 66.6671C-0.141225 64.6003 -0.147407 62.392 0.444326 60.3216C1.03606 58.2511 2.19914 56.4113 3.7865 55.035C5.37386 53.6586 7.31422 52.8073 9.36225 52.5889C11.4103 52.3705 13.474 52.7947 15.2925 53.8078C17.1109 54.8209 18.6025 56.3776 19.5786 58.2808C20.5546 60.1841 20.9714 62.3486 20.7761 64.5005Z" fill="#FFD700" fill-opacity="0.26"/>
<path d="M486.213 373.105C486.05 374.895 485.469 376.614 484.522 378.112C483.575 379.61 482.291 380.839 480.783 381.692C479.276 382.544 477.591 382.993 475.879 382.999C474.167 383.005 472.48 382.568 470.968 381.726C469.128 380.694 467.623 379.108 466.647 377.172C466.422 376.724 466.226 376.261 466.06 375.786C465.529 374.244 465.334 372.596 465.492 370.965C465.649 369.334 466.153 367.76 466.968 366.362C467.783 364.963 468.886 363.774 470.197 362.884C471.509 361.994 472.994 361.424 474.543 361.218C476.092 361.012 477.665 361.175 479.146 361.694C480.627 362.213 481.978 363.075 483.099 364.216C484.22 365.358 485.082 366.749 485.622 368.288C486.161 369.826 486.364 371.473 486.216 373.105H486.213Z" fill="#FFD700" fill-opacity="0.26"/>
<path d="M276.421 335.718C276.286 337.218 275.857 338.673 275.161 339.991C274.464 341.308 273.515 342.459 272.373 343.372C271.998 343.672 271.605 343.945 271.195 344.189C269.983 344.912 268.645 345.371 267.26 345.54C265.876 345.709 264.473 345.584 263.135 345.173C261.797 344.762 260.552 344.073 259.472 343.147C258.393 342.221 257.502 341.076 256.852 339.782C256.626 339.336 256.431 338.874 256.268 338.399C255.735 336.857 255.54 335.209 255.696 333.577C255.853 331.945 256.357 330.37 257.171 328.971C257.986 327.571 259.09 326.382 260.401 325.491C261.713 324.6 263.198 324.03 264.748 323.824C266.297 323.618 267.871 323.781 269.353 324.3C270.835 324.819 272.186 325.682 273.307 326.824C274.428 327.967 275.29 329.359 275.829 330.899C276.368 332.438 276.57 334.085 276.421 335.718Z" fill="#FFD700" fill-opacity="0.26"/>
<path d="M573.903 340.425C573.633 343.427 572.772 346.337 571.377 348.972C569.981 351.607 568.08 353.909 565.793 355.733C565.044 356.334 564.257 356.881 563.439 357.371C559.536 359.701 555.02 360.641 550.566 360.052C546.112 359.464 541.959 357.377 538.728 354.105C536.428 351.783 534.667 348.937 533.58 345.787C532.518 342.703 532.13 339.408 532.444 336.146C532.758 332.883 533.768 329.736 535.397 326.939C537.026 324.141 539.233 321.764 541.856 319.984C544.478 318.203 547.448 317.065 550.546 316.653C553.644 316.241 556.791 316.565 559.753 317.603C562.715 318.641 565.417 320.365 567.659 322.648C569.901 324.931 571.626 327.714 572.705 330.791C573.784 333.868 574.19 337.161 573.893 340.425H573.903Z" fill="#FFD700" fill-opacity="0.26"/>
<path d="M355.988 23.9425C355.718 26.9442 354.858 29.8545 353.462 32.4893C352.067 35.1241 350.165 37.4262 347.879 39.2501C347.131 39.8516 346.344 40.3979 345.524 40.8851C341.622 43.2137 337.106 44.1541 332.653 43.566C328.199 42.9778 324.046 40.8927 320.814 37.622C319.216 36.0048 317.873 34.132 316.834 32.0732C315.326 29.0659 314.507 25.7314 314.439 22.3337C314.371 18.9359 315.058 15.5684 316.445 12.4976C318.545 7.85213 322.136 4.13234 326.589 1.99178C331.041 -0.148781 336.07 -0.573174 340.79 0.79316C345.511 2.15949 349.623 5.22915 352.402 9.46281C355.182 13.6965 356.451 18.8233 355.988 23.9425Z" fill="#FFD700" fill-opacity="0.26"/>
<path d="M29.1186 345.273L92.9933 293.171" stroke="#F29826" stroke-width="14" stroke-miterlimit="10"/>
<path d="M272.246 113.741L423.623 209.276" stroke="#F29826" stroke-width="14" stroke-miterlimit="10"/>
<path d="M357.678 341.999L460.494 277.737" stroke="#F29826" stroke-width="14" stroke-miterlimit="10"/>
<path d="M186.412 152.729L157.669 198.426" stroke="#F29826" stroke-width="14" stroke-miterlimit="10"/>
<path d="M541.31 113.741L512.571 188.416" stroke="#F29826" stroke-width="14" stroke-miterlimit="10"/>
<path d="M429.539 36.76L539.727 106.56" stroke="#F29826" stroke-width="14" stroke-miterlimit="10"/>
<path d="M80.6187 33.187L186.013 70.9825" stroke="#F29826" stroke-width="14" stroke-miterlimit="10"/>
<path d="M202.056 255.392C200.233 275.691 191.15 294.51 176.638 308.056C175.181 309.419 173.677 310.72 172.126 311.96C169.359 314.177 166.453 316.196 163.427 318.002C149.86 326.11 134.257 329.668 118.709 328.201L118.161 328.149C106.297 326.962 94.8572 322.895 84.7451 316.271C74.6329 309.647 66.1247 300.647 59.8915 289.979C59.0265 288.494 58.2015 286.978 57.4165 285.432C51.8429 274.323 48.8069 262.004 48.5485 249.451C48.2901 236.897 50.8164 224.452 55.9277 213.101C69.4085 183.242 99.6364 163.969 132.774 167.29C175.085 171.528 206.094 210.975 202.056 255.392Z" fill="#F29826"/>
<path d="M46.148 349.864C45.8804 352.869 45.0215 355.784 43.6256 358.422C42.2297 361.061 40.3273 363.366 38.0387 365.192C37.2894 365.792 36.5026 366.338 35.6838 366.827C33.259 368.271 30.5828 369.189 27.8139 369.526C25.045 369.864 22.2398 369.614 19.5645 368.792C16.8892 367.97 14.3983 366.592 12.2395 364.74C10.0807 362.889 8.29782 360.601 6.99664 358.012C6.54655 357.118 6.15531 356.193 5.82567 355.243C4.76328 352.159 4.37492 348.864 4.68933 345.601C5.00374 342.339 6.01287 339.192 7.64202 336.395C9.27117 333.597 11.4786 331.22 14.101 329.439C16.7233 327.659 19.6935 326.52 22.7915 326.108C25.8895 325.696 29.0361 326.021 31.9984 327.059C34.9607 328.097 37.6627 329.821 39.9046 332.104C42.1465 334.387 43.8708 337.17 44.9498 340.247C46.0288 343.324 46.435 346.617 46.1382 349.881L46.148 349.864Z" fill="#F29826"/>
<path d="M552.822 252.794C551.744 264.524 548.234 275.865 542.541 286.02C536.847 296.176 529.106 304.9 519.862 311.582C510.617 318.264 500.093 322.741 489.026 324.699C477.96 326.658 466.619 326.05 455.8 322.919C444.981 319.788 434.945 314.209 426.396 306.574C417.847 298.939 410.992 289.433 406.312 278.721C401.633 268.01 399.241 256.353 399.305 244.568C399.369 232.784 401.888 221.156 406.684 210.502C420.165 180.643 450.393 161.37 483.53 164.691C525.841 168.929 556.867 208.376 552.822 252.794Z" fill="#F29826"/>
<path d="M297.294 95.8957C296.219 107.629 292.712 118.973 287.02 129.132C281.327 139.291 273.587 148.019 264.342 154.704C255.096 161.389 244.57 165.868 233.501 167.828C222.433 169.787 211.09 169.18 200.268 166.048C189.447 162.916 179.409 157.336 170.859 149.698C162.309 142.06 155.455 132.551 150.776 121.836C146.097 111.122 143.707 99.4619 143.775 87.6748C143.842 75.8876 146.365 64.2587 151.166 53.6039C164.646 23.7381 194.871 4.47244 228.012 7.79351C270.313 12.0309 301.332 51.4784 297.294 95.8957Z" fill="#F29826"/>
<path d="M104.833 35.8335C104.407 40.5185 102.553 44.9343 99.5465 48.4244C96.5399 51.9145 92.5411 54.2928 88.1445 55.2057C83.7479 56.1186 79.1881 55.5174 75.1429 53.4915C71.0977 51.4656 67.7829 48.1231 65.6912 43.9608C65.2403 43.0678 64.8501 42.1424 64.5235 41.1915C63.4625 38.1084 63.0753 34.8143 63.3905 31.5529C63.7057 28.2914 64.7153 25.1462 66.3445 22.3498C67.9737 19.5534 70.1808 17.1776 72.8026 15.398C75.4244 13.6185 78.3936 12.4807 81.4907 12.0691C84.5877 11.6574 87.7333 11.9823 90.6946 13.0198C93.6559 14.0572 96.3572 15.7806 98.5985 18.0625C100.84 20.3444 102.564 23.1263 103.643 26.2024C104.722 29.2785 105.129 32.5701 104.833 35.8335Z" fill="#F29826"/>
<path d="M371.256 347.35C370.887 351.445 369.425 355.347 367.039 358.609C364.652 361.87 361.438 364.358 357.765 365.787C354.092 367.215 350.11 367.527 346.276 366.685C342.442 365.844 338.912 363.884 336.092 361.03C333.794 358.706 332.034 355.861 330.947 352.712C329.886 349.629 329.499 346.335 329.814 343.073C330.129 339.812 331.138 336.667 332.767 333.87C334.396 331.074 336.603 328.698 339.225 326.918C341.846 325.139 344.816 324.001 347.912 323.589C351.009 323.177 354.155 323.502 357.116 324.539C360.078 325.576 362.779 327.299 365.02 329.581C367.262 331.862 368.986 334.644 370.066 337.72C371.145 340.796 371.552 344.087 371.256 347.35Z" fill="#F29826"/>
<path d="M563.659 109.347C563.234 114.032 561.38 118.448 558.374 121.939C555.368 125.429 551.369 127.808 546.972 128.722C542.576 129.635 538.016 129.034 533.97 127.008C529.924 124.982 526.609 121.64 524.518 117.478C524.067 116.584 523.676 115.658 523.347 114.708C522.284 111.625 521.896 108.33 522.21 105.067C522.525 101.804 523.534 98.6578 525.163 95.8601C526.792 93.0625 529 90.6854 531.622 88.9049C534.244 87.1244 537.214 85.986 540.312 85.5739C543.41 85.1619 546.557 85.4868 549.519 86.5246C552.482 87.5624 555.184 89.2865 557.426 91.5693C559.667 93.8521 561.392 96.6352 562.471 99.7124C563.55 102.79 563.956 106.082 563.659 109.347Z" fill="#F29826"/>
<path d="M444.35 34.2429C444.08 37.2446 443.219 40.1548 441.824 42.7897C440.428 45.4245 438.527 47.7266 436.241 49.5505C435.492 50.152 434.706 50.6983 433.886 51.1855C429.983 53.5141 425.468 54.4545 421.014 53.8664C416.56 53.2782 412.407 51.1931 409.175 47.9224C406.877 45.599 405.118 42.7535 404.031 39.6043C402.97 36.5214 402.582 33.2274 402.897 29.966C403.212 26.7046 404.222 23.5594 405.851 20.763C407.48 17.9666 409.687 15.5906 412.308 13.8109C414.93 12.0312 417.899 10.8933 420.996 10.4814C424.093 10.0695 427.238 10.3941 430.2 11.4313C433.161 12.4684 435.862 14.1915 438.104 16.4731C440.345 18.7547 442.07 21.5363 443.149 24.6122C444.229 27.6881 444.636 30.9795 444.34 34.2429H444.35Z" fill="#F29826"/>
<path d="M401.494 203.839L403.476 200.055C404.309 198.166 405.05 196.233 405.695 194.264C406.694 191.175 406.343 186.77 410.719 182.611C415.095 178.452 408.624 179.6 406.438 181.518C404.615 183.116 403.132 187.649 401.319 188.671C400.905 188.056 400.578 187.381 400.346 186.668L396.382 167.164C396.325 166.852 396.162 166.572 395.923 166.375C395.685 166.179 395.387 166.079 395.085 166.095L394.358 166.118C394.182 166.128 394.01 166.177 393.853 166.26C393.696 166.344 393.557 166.461 393.445 166.605C393.334 166.748 393.252 166.914 393.205 167.093C393.159 167.271 393.148 167.458 393.174 167.641C393.784 171.814 395.902 184.229 395.688 184.236L395.25 184.454L389.171 164.698C389.087 164.386 388.896 164.118 388.635 163.944C388.374 163.771 388.062 163.705 387.757 163.758L386.784 163.928C386.615 163.956 386.454 164.02 386.31 164.116C386.165 164.212 386.041 164.337 385.945 164.485C385.849 164.633 385.782 164.801 385.75 164.977C385.717 165.153 385.719 165.334 385.756 165.509C386.69 170.053 391.059 185.173 390.839 185.187L390.303 185.377L383.709 169.027C383.617 168.702 383.41 168.425 383.13 168.255C382.85 168.086 382.518 168.035 382.204 168.115L381.429 168.316C381.267 168.357 381.115 168.432 380.981 168.535C380.847 168.638 380.734 168.768 380.647 168.917C380.561 169.067 380.504 169.232 380.479 169.405C380.454 169.578 380.461 169.754 380.501 169.923L386.434 186.007L385.889 186.369L379.674 174.75C379.554 174.451 379.334 174.208 379.056 174.068C378.777 173.927 378.459 173.898 378.162 173.987L377.793 174.103C377.476 174.2 377.208 174.424 377.046 174.725C376.884 175.026 376.84 175.382 376.923 175.717C377.52 178.102 380.491 183.105 382.22 188.32C383.573 192.36 383.667 195.596 385.898 200.487C386.839 202.562 388.63 205.024 389.606 206.397" fill="#C26F33"/>
<path d="M514.193 315.403C499.767 323.992 483.085 327.458 466.631 325.284C450.178 323.11 434.833 315.413 422.883 303.339L423.811 278.361L394.034 273.197C389.639 271.929 385.819 269.058 383.259 265.099C380.699 261.139 379.567 256.351 380.066 251.594L382.502 202.565L406.029 204.268L406.677 210.509L410.314 243.44C410.314 243.44 434.927 246.672 468.515 255.702C501.212 264.494 510.842 294.983 514.193 315.403Z" fill="#55A603"/>
<path d="M423.486 278.044L423.762 269.532" stroke="white" stroke-width="3" stroke-miterlimit="10" stroke-linecap="square"/>
<path d="M488.575 225.13C497.593 213.057 496.308 196.191 485.705 187.458C475.102 178.724 459.197 181.431 450.18 193.504C441.162 205.576 442.447 222.442 453.05 231.176C463.652 239.909 479.558 237.202 488.575 225.13Z" fill="#24272D"/>
<path d="M453.027 265.465C451.257 264.118 449.952 262.203 449.311 260.009C448.671 257.815 448.728 255.461 449.475 253.304L461.184 219.542C461.584 218.172 462.245 216.902 463.127 215.809C464.008 214.716 465.093 213.823 466.313 213.184C467.534 212.545 468.866 212.174 470.228 212.093C471.59 212.011 472.953 212.222 474.235 212.711C475.517 213.201 476.691 213.959 477.685 214.94C478.679 215.921 479.472 217.104 480.017 218.417C480.562 219.731 480.847 221.146 480.854 222.579C480.861 224.011 480.591 225.43 480.059 226.749L468.347 260.515C467.813 262.046 466.949 263.426 465.823 264.548C464.697 265.67 463.339 266.502 461.855 266.981C460.371 267.459 458.802 267.57 457.27 267.305C455.739 267.041 454.286 266.407 453.027 265.454V265.465Z" fill="#C26F33"/>
<path d="M455.015 246.638L453.069 245.879C450.806 244.997 448.756 243.601 447.064 241.792C445.373 239.984 444.082 237.805 443.284 235.413C442.486 233.021 442.199 230.473 442.445 227.951C442.691 225.429 443.463 222.995 444.707 220.823L450.87 210.059C452.858 206.583 455.95 203.954 459.601 202.633C463.252 201.313 467.229 201.385 470.834 202.838C474.902 204.477 478.183 207.746 479.956 211.926C481.728 216.105 481.847 220.853 480.287 225.125L476.07 236.648C474.52 240.889 471.44 244.317 467.498 246.187C463.556 248.058 459.07 248.22 455.015 246.638Z" fill="#C26F33"/>
<path d="M456.569 216.166L448.132 223.36L451.444 225.973" stroke="white" stroke-width="3" stroke-miterlimit="10" stroke-linecap="square"/>
<path d="M458.713 221.248C459.696 221.248 460.494 220.411 460.494 219.378C460.494 218.346 459.696 217.508 458.713 217.508C457.729 217.508 456.932 218.346 456.932 219.378C456.932 220.411 457.729 221.248 458.713 221.248Z" fill="white"/>
<path d="M451.307 217.314C452.291 217.314 453.088 216.477 453.088 215.444C453.088 214.411 452.291 213.574 451.307 213.574C450.324 213.574 449.527 214.411 449.527 215.444C449.527 216.477 450.324 217.314 451.307 217.314Z" fill="white"/>
<path d="M505.292 275.309C505.292 275.309 497.079 296.901 481.081 287.309C454.597 271.426 460.036 250.539 467.503 240.984C470.478 237.179 474.639 235.493 478.983 234.11C466.355 222.417 472.563 213.104 472.563 213.104C472.563 213.104 438.79 210.825 449.712 194.002C460.633 177.179 480.141 179.382 490.481 186.689C514.517 203.679 506.337 220.996 511.822 227.373C542.919 263.557 505.292 275.309 505.292 275.309Z" fill="#24272D"/>
<path d="M482.532 235.592C486.024 233.362 487.134 228.583 485.011 224.916C482.888 221.25 478.336 220.085 474.845 222.314L469.096 225.984C465.605 228.213 464.495 232.993 466.618 236.659C468.741 240.326 473.293 241.491 476.784 239.262L482.532 235.592Z" fill="#C26F33"/>
<path d="M480.961 227.836L472.807 233.037" stroke="white" stroke-width="3" stroke-miterlimit="10" stroke-linecap="square"/>
<path d="M456.358 231.242C456.444 232.432 456.076 233.61 455.336 234.515C454.595 235.421 453.542 235.98 452.409 236.07C451.275 236.161 450.154 235.775 449.292 234.997C448.43 234.219 447.897 233.114 447.811 231.923C447.629 229.444 450.02 229.467 452.378 229.277C454.736 229.086 456.176 228.762 456.358 231.242Z" fill="white"/>
<path d="M270.037 150.218L267.364 152.463C264.597 154.68 261.691 156.699 258.665 158.506C249.703 163.839 239.814 167.23 229.582 168.476C219.35 169.722 208.984 168.798 199.098 165.76C189.212 162.722 180.007 157.63 172.03 150.788C164.052 143.945 157.463 135.491 152.654 125.925C164.87 116.497 185.322 105.232 211.482 107.531C255.239 111.398 270.037 150.218 270.037 150.218Z" fill="#FFD700"/>
<path d="M217.901 126.685C217.409 126.686 216.917 126.655 216.429 126.593C213.183 126.187 210.224 124.444 208.202 121.747C206.18 119.05 205.261 115.62 205.647 112.211L211.485 60.6378C211.872 57.2288 213.533 54.121 216.102 51.998C217.375 50.9467 218.831 50.169 220.39 49.709C221.948 49.249 223.578 49.1159 225.185 49.3171C226.792 49.5184 228.346 50.0502 229.758 50.8821C231.17 51.714 232.412 52.8298 233.413 54.1657C234.414 55.5016 235.154 57.0314 235.592 58.6679C236.03 60.3044 236.157 62.0154 235.965 63.7034L230.127 115.277C229.769 118.419 228.328 121.315 226.075 123.417C223.823 125.519 220.915 126.681 217.901 126.685Z" fill="#C26F33"/>
<path d="M228.22 100.337L230.834 100.644C233.874 101.004 236.953 100.656 239.85 99.6246C242.748 98.5932 245.393 96.9039 247.598 94.6768C249.803 92.4496 251.514 89.7395 252.608 86.7392C253.702 83.7389 254.153 80.5223 253.929 77.3181L252.82 61.4451C252.461 56.3185 250.394 51.4885 246.981 47.8033C243.569 44.1181 239.029 41.8134 234.159 41.2938C228.665 40.7086 223.175 42.439 218.896 46.1044C214.617 49.7697 211.9 55.0698 211.343 60.8388L209.838 76.4018C209.284 82.1293 210.903 87.8549 214.345 92.3361C217.786 96.8173 222.772 99.6925 228.22 100.337Z" fill="#C26F33"/>
<path d="M216.109 83.4659L216.112 83.4641C219.712 81.1378 220.836 76.1865 218.62 72.4052L216.345 68.5205C214.129 64.7391 209.414 63.5596 205.813 65.8859L205.811 65.8877C202.21 68.214 201.086 73.1652 203.302 76.9466L205.578 80.8313C207.793 84.6127 212.508 85.7922 216.109 83.4659Z" fill="#C26F33"/>
<path d="M206.675 72.168L212.812 78.9804" stroke="white" stroke-width="3" stroke-miterlimit="10" stroke-linecap="square"/>
<path d="M243.166 63.4614L243.598 76.2178L239.277 76.4017" stroke="white" stroke-width="3" stroke-miterlimit="10" stroke-linecap="square"/>
<path d="M230.295 80.3632C229.938 81.0565 229.715 81.8169 229.637 82.601C229.56 83.3851 229.631 84.1775 229.845 84.933C230.059 85.6885 230.413 86.3922 230.886 87.0041C231.36 87.6159 231.943 88.1239 232.603 88.499C233.264 88.874 233.988 89.1089 234.734 89.1901C235.481 89.2712 236.236 89.1972 236.955 88.9722C237.675 88.7471 238.345 88.3755 238.927 87.8784C239.51 87.3814 239.994 86.7688 240.351 86.0754C241.853 83.1563 238.93 81.8244 236.134 80.2474C233.338 78.6703 231.797 77.4474 230.295 80.3632Z" fill="white"/>
<path d="M217.716 78.0572L223.555 55.0277L224.94 49.5777C226.241 51.0425 227.765 52.2706 229.449 53.2121C235.56 56.6661 253.984 55.2899 256.537 41.7229C258.619 30.6595 247.432 37.0189 241.703 36.3275C232.702 35.2375 226.458 29.6751 214.132 36.6681C199.39 45.044 206.373 65.5768 206.373 65.5768C206.373 65.5768 212.861 62.9097 217.716 78.0572Z" fill="#24272D"/>
<path d="M231.486 100.712L223.678 99.9661L230.808 107.272L231.486 100.712Z" fill="#24272D"/>
<path d="M234.846 70.3524C236.03 70.3524 236.99 69.3444 236.99 68.1009C236.99 66.8574 236.03 65.8494 234.846 65.8494C233.662 65.8494 232.702 66.8574 232.702 68.1009C232.702 69.3444 233.662 70.3524 234.846 70.3524Z" fill="white"/>
<path d="M247.636 70.3524C248.82 70.3524 249.78 69.3444 249.78 68.1009C249.78 66.8574 248.82 65.8494 247.636 65.8494C246.452 65.8494 245.492 66.8574 245.492 68.1009C245.492 69.3444 246.452 70.3524 247.636 70.3524Z" fill="white"/>
<path d="M188.786 293.641C185.296 298.935 181.218 303.774 176.638 308.056C175.181 309.419 173.677 310.72 172.126 311.96C169.359 314.177 166.453 316.196 163.427 318.002C158.916 320.698 154.155 322.905 149.219 324.59L118.709 328.201L118.161 328.15C106.297 326.962 94.8572 322.896 84.7451 316.272C74.6329 309.647 66.1247 300.647 59.8915 289.979C71.4228 267.774 92.0235 244.908 128.599 239.387C163.469 234.124 182.633 276.787 188.786 293.641Z" fill="#2E2E2E"/>
<path d="M133.264 258.489L132.874 258.516C129.161 258.694 125.533 257.317 122.786 254.687C120.04 252.056 118.401 248.388 118.229 244.489L115.959 192.769C115.873 190.838 116.151 188.909 116.776 187.09C117.401 185.272 118.361 183.601 119.601 182.173C122.105 179.288 125.598 177.565 129.311 177.385C133.025 177.204 136.654 178.58 139.402 181.209C142.149 183.839 143.789 187.507 143.961 191.406L146.232 243.123C146.402 246.954 145.143 250.703 142.721 253.573C140.298 256.442 136.905 258.206 133.264 258.489Z" fill="#C26F33"/>
<path d="M141.558 231.443L144.098 230.762C147.049 229.955 149.794 228.476 152.139 226.429C154.484 224.382 156.371 221.818 157.665 218.919C158.959 216.019 159.63 212.856 159.628 209.654C159.627 206.452 158.953 203.29 157.656 200.392L151.224 186.035C149.146 181.4 145.579 177.682 141.151 175.533C136.722 173.384 131.715 172.942 127.007 174.283C121.695 175.798 117.173 179.466 114.436 184.481C111.698 189.496 110.97 195.447 112.41 201.025L116.302 216.074C117.739 221.611 121.196 226.33 125.924 229.207C130.652 232.084 136.269 232.888 141.558 231.443Z" fill="#C26F33"/>
<path d="M113.856 221.76C117.204 224.449 121.994 223.779 124.555 220.263C127.116 216.747 126.477 211.717 123.129 209.028L119.692 206.267C116.344 203.578 111.554 204.248 108.993 207.764C106.432 211.28 107.07 216.31 110.419 219L113.856 221.76Z" fill="#C26F33"/>
<path d="M161.529 215.332C163.508 223.966 162.178 236.631 152.22 239.277C142.262 241.924 129.9 233.562 127.824 224.944C125.748 216.326 128.022 211.513 137.987 208.863C147.951 206.213 158.944 204.067 161.529 215.332Z" fill="#24272D"/>
<path d="M111.927 213.305L118.469 217.358" stroke="white" stroke-width="3" stroke-miterlimit="10" stroke-linecap="square"/>
<path d="M136.809 216.663C136.646 218.221 137.07 219.784 137.992 221.016C138.914 222.248 140.259 223.052 141.739 223.254C143.219 223.456 144.715 223.04 145.906 222.096C147.097 221.153 147.889 219.756 148.11 218.206C148.516 214.93 145.34 214.8 142.22 214.357C139.099 213.915 137.215 213.387 136.809 216.663Z" fill="white"/>
<path d="M145.512 230.22L137.717 230.827L145.865 236.788L145.512 230.22Z" fill="#24272D"/>
<path d="M135.849 203.699C137.028 203.699 137.983 202.696 137.983 201.458C137.983 200.22 137.028 199.217 135.849 199.217C134.67 199.217 133.715 200.22 133.715 201.458C133.715 202.696 134.67 203.699 135.849 203.699Z" fill="white"/>
<path d="M150.78 199.271C151.958 199.271 152.914 198.268 152.914 197.03C152.914 195.792 151.958 194.789 150.78 194.789C149.601 194.789 148.645 195.792 148.645 197.03C148.645 198.268 149.601 199.271 150.78 199.271Z" fill="white"/>
<path d="M112.575 326.457L121.113 332.469C121.113 332.469 120.733 353.853 129.689 352.712C129.689 352.712 129.725 356.091 131.545 356.414C133.364 356.738 138.324 348.761 138.324 348.761C138.324 348.761 145.136 346.063 146.482 339.155C147.828 332.247 148.074 315.931 145.972 314.702C143.871 313.472 123.134 312.934 123.134 312.934C123.134 312.934 114.525 314.031 112.575 326.457Z" fill="#C26F33"/>
<path d="M126.977 310.202L92.5522 296.856" stroke="white" stroke-width="3" stroke-miterlimit="10" stroke-linecap="square"/>
<path d="M99.3866 298.852L118.703 274.164" stroke="white" stroke-width="3" stroke-miterlimit="10" stroke-linecap="square"/>
<path d="M112.524 327.383C112.524 327.383 111.625 314.402 127.603 310.403" stroke="white" stroke-width="3" stroke-miterlimit="10" stroke-linecap="square"/>
<path d="M144.717 193.59L149.453 205.297L145.496 207.089" stroke="white" stroke-width="3" stroke-miterlimit="10" stroke-linecap="square"/>
</g>
<defs>
<clipPath id="clip0_2_345">
<rect width="574" height="383" fill="white"/>
</clipPath>
</defs>
</svg>
