<svg width="377" height="384" viewBox="0 0 377 384" fill="none" xmlns="http://www.w3.org/2000/svg">
<path d="M345.484 158.981C345.484 158.981 360.119 165.475 366.54 173.136C372.962 180.798 376.997 197.282 376.997 197.282C376.997 197.282 338.021 202.489 334.271 165.088" fill="#C29033"/>
<path d="M24.8494 342.356L0 369.083L23.0955 383.731H94.2928L56.3865 362.382L24.8494 342.356Z" fill="black"/>
<path d="M164.97 350.183L149.071 383.731H240.075L202.168 362.382L164.97 350.183Z" fill="black"/>
<path d="M66.5571 368.332L152.076 277.876C159.768 269.733 164.816 259.213 166.492 247.835L173.807 198.19L205.81 247.574L155.598 349.448L210.159 366.552L261.764 278.571C266.481 270.525 268.851 261.187 268.579 251.723C268.307 242.26 265.404 233.091 260.233 225.364L216.918 160.714L139.546 110.672L122.877 138.339C116.579 148.797 112.896 160.777 112.173 173.154L108.575 234.756L11.7487 340.213L66.5571 368.332Z" fill="#55A603"/>
<path d="M295.87 127.556C295.87 127.556 277.828 65.2353 252.213 51.6533C212.382 30.5258 181.291 56.2108 166.519 73.5152C159.094 82.2127 139.511 110.675 139.511 110.675L216.878 160.717L245.454 123.814L264.642 159.197L336.115 191.346L349.51 153.367L295.87 127.556Z" fill="#FFD700"/>
<path d="M287.75 24.3881L249.268 58.4637" stroke="#C29033" stroke-width="35" stroke-linecap="round" stroke-linejoin="round"/>
<path d="M261.659 66.4376L263.984 67.8259C266.688 69.4385 269.695 70.4005 272.79 70.6437C275.886 70.8868 278.994 70.4051 281.894 69.2328C284.793 68.0606 287.413 66.2265 289.567 63.861C291.721 61.4956 293.356 58.6569 294.356 55.5468L299.304 40.1439C300.904 35.1683 300.795 29.7554 298.999 24.8558C297.202 19.9562 293.832 15.8833 289.479 13.3522C284.569 10.4983 278.789 9.82506 273.41 11.4806C268.03 13.1361 263.493 16.9848 260.794 22.1805L253.517 36.2001C250.839 41.3595 250.192 47.4285 251.717 53.0897C253.241 58.7508 256.814 63.5472 261.659 66.4376Z" fill="#C29033"/>
<path d="M256.345 45.567L257.068 45.4509C261.109 44.8026 263.889 40.81 263.276 36.5332L262.506 31.1568C261.893 26.88 258.121 23.9386 254.08 24.5869L253.356 24.703C249.315 25.3513 246.536 29.3439 247.148 33.6207L247.918 38.9971C248.531 43.2739 252.304 46.2153 256.345 45.567Z" fill="#C29033"/>
<path d="M252.165 30.8868L255.33 39.8711" stroke="white" stroke-width="3" stroke-miterlimit="10" stroke-linecap="square"/>
<path d="M288.04 41.5412L284.622 54.0769L280.401 52.8142" stroke="white" stroke-width="3" stroke-miterlimit="10" stroke-linecap="square"/>
<path d="M260.251 41.0883L274.396 21.8622L277.752 17.2947C278.419 19.2199 279.382 21.0149 280.604 22.6067C285.01 28.4218 302.739 34.8506 310.239 23.15C316.357 13.5923 303.509 14.9052 298.418 11.8518C290.424 7.05286 286.678 -0.804561 272.538 0.614C255.593 2.28911 254.362 24.5434 254.362 24.5434C254.362 24.5434 261.429 24.7798 260.251 41.0883Z" fill="#24272D"/>
<path d="M263.296 67.4375L257.901 61.2552L258.134 71.9245L263.296 67.4375Z" fill="#24272D"/>
<path d="M281.321 42.8397C282.52 42.8397 283.493 41.8105 283.493 40.5409C283.493 39.2712 282.52 38.242 281.321 38.242C280.121 38.242 279.148 39.2712 279.148 40.5409C279.148 41.8105 280.121 42.8397 281.321 42.8397Z" fill="white"/>
<path d="M293.244 48.4069C294.444 48.4069 295.416 47.3777 295.416 46.108C295.416 44.8384 294.444 43.8091 293.244 43.8091C292.045 43.8091 291.072 44.8384 291.072 46.108C291.072 47.3777 292.045 48.4069 293.244 48.4069Z" fill="white"/>
<path d="M220.351 159.412L140.455 109.36" stroke="white" stroke-width="14" stroke-miterlimit="10" stroke-linecap="square"/>
<path d="M257.643 154.98C257.643 154.98 263.584 151.695 272.767 152.465L282.635 156.393C282.635 156.393 291.395 163.828 279.384 176.978C267.372 190.127 244.643 180.187 244.643 180.187" fill="#C29033"/>
<path d="M173.195 112.392L176.926 143.233C177.497 147.961 179.277 152.434 182.075 156.17C184.873 159.905 188.582 162.76 192.802 164.426L246.987 185.82L260.41 146.035L218.663 129.435L219.833 92.3964" fill="#FFD700"/>
<mask id="mask0_2_22" style="mask-type:luminance" maskUnits="userSpaceOnUse" x="139" y="43" width="211" height="149">
<path d="M295.909 127.559C295.909 127.559 277.866 65.2325 252.252 51.6505C212.42 30.523 181.33 56.208 166.557 73.5175C159.133 82.215 139.545 110.677 139.545 110.677L175.831 134.148L176.929 143.243C177.501 147.971 179.282 152.444 182.081 156.178C184.88 159.912 188.589 162.766 192.809 164.431L246.995 185.83L259.31 149.325L264.672 159.205L336.145 191.364L349.539 153.379L295.909 127.559ZM235.853 136.256L245.488 123.811L256.739 144.571L235.853 136.256Z" fill="white"/>
</mask>
<g mask="url(#mask0_2_22)">
<path d="M180.81 94.3053L166.546 71.6687L152.281 94.3053H180.81Z" fill="#F29826"/>
<path d="M236.083 94.3053L221.819 71.6687L207.555 94.3053H236.083Z" fill="#F29826"/>
<path d="M291.751 94.3053L277.487 71.6687L263.222 94.3053H291.751Z" fill="#F29826"/>
<path d="M236.083 175.409L221.819 152.772L207.555 175.409H236.083Z" fill="#F29826"/>
<path d="M347.032 175.409L332.768 152.772L318.504 175.409H347.032Z" fill="#F29826"/>
<path d="M236.084 114.815L250.348 137.451L264.612 114.815H236.084Z" fill="#F29826"/>
<path d="M180.612 114.815L194.876 137.451L209.14 114.815H180.612Z" fill="#F29826"/>
<path d="M180.612 41.5729L194.876 64.2096L209.14 41.5729H180.612Z" fill="#F29826"/>
</g>
<path d="M280.788 146.846L273.392 157.983" stroke="#1F2128" stroke-width="8" stroke-miterlimit="10" stroke-linecap="round"/>
<path d="M296.256 92.4412L302.012 115.279L321.129 117.603L313.747 134.384L297.106 148.927L280.361 147.488L275.503 133.061L278.198 115.214L296.256 92.4412Z" fill="#FFD700"/>
<mask id="mask1_2_22" style="mask-type:luminance" maskUnits="userSpaceOnUse" x="275" y="92" width="47" height="57">
<path d="M296.255 92.4451L302.011 115.288L321.128 117.607L313.742 134.388L297.101 148.931L280.356 147.492L275.498 133.065L278.198 115.223L296.255 92.4451Z" fill="white"/>
</mask>
<g mask="url(#mask1_2_22)">
<path d="M268.101 106.456L292.917 145.834L317.729 106.456H268.101Z" fill="#F29826"/>
</g>
<path d="M316.282 129.243C326.312 112.911 327.121 94.6356 318.09 88.424C309.059 82.2123 293.607 90.4164 283.578 106.748C273.549 123.08 272.74 141.355 281.771 147.567C290.802 153.778 306.253 145.574 316.282 129.243Z" stroke="#1F2128" stroke-width="8" stroke-miterlimit="10"/>
<path d="M271.807 51.4023C271.807 51.4023 270.69 56.0453 275.282 58.3341L271.807 51.4023Z" fill="white"/>
<path d="M236 135.484L218.157 128.109L217.667 86.7296" stroke="white" stroke-width="3" stroke-miterlimit="10" stroke-linecap="square"/>
<path d="M174.547 127.439L172.731 98.4436" stroke="white" stroke-width="3" stroke-miterlimit="10" stroke-linecap="square"/>
<path d="M111.03 245.979L106.909 234.213L117.038 232.548" stroke="white" stroke-width="3" stroke-miterlimit="10" stroke-linecap="square"/>
<path d="M213.183 256.12L203.738 247.166L216.824 240.239" stroke="white" stroke-width="3" stroke-miterlimit="10" stroke-linecap="square"/>
<path d="M175.243 183.8L172.211 218.867" stroke="white" stroke-width="3" stroke-miterlimit="10" stroke-linecap="square"/>
</svg>
