<svg width="400" height="400" viewBox="0 0 400 400" fill="none" xmlns="http://www.w3.org/2000/svg">
<g clip-path="url(#clip0_2_293)">
<rect width="400" height="400" rx="80" fill="#E0FFC0" fill-opacity="0.61"/>
<path d="M257.83 277.946H282.662L264.178 219.807H239.347L257.83 277.946Z" fill="#72A065"/>
<path d="M240.766 277.943H272.753V274.143H240.766V277.943Z" fill="#72A065"/>
<path d="M199.859 400C303.199 400 386.973 398.899 386.973 397.541C386.973 396.183 303.199 395.083 199.859 395.083C96.5179 395.083 12.7437 396.183 12.7437 397.541C12.7437 398.899 96.5179 400 199.859 400Z" fill="#656664"/>
<path d="M182.243 278.545L155.729 397.541" stroke="#475056" stroke-width="5" stroke-miterlimit="10"/>
<path d="M210.966 278.545L184.449 397.541" stroke="#475056" stroke-width="5" stroke-miterlimit="10"/>
<path d="M346.73 278.427L373.272 397.543" stroke="#475056" stroke-width="5" stroke-miterlimit="10"/>
<path d="M317.984 278.427L344.526 397.543" stroke="#475056" stroke-width="5" stroke-miterlimit="10"/>
<path d="M158.141 278.469H364.905" stroke="#475056" stroke-width="5" stroke-miterlimit="10"/>
<path d="M246.705 251.855H236.515V219.807L246.705 251.855Z" fill="#24272D"/>
<path d="M256.77 251.855C256.85 252.129 256.944 252.398 257.053 252.662C258.471 256.091 261.917 257.919 264.753 256.744C266.639 255.962 267.78 254.053 267.916 251.848C267.979 250.675 267.776 249.503 267.321 248.419C265.903 244.99 262.454 243.162 259.619 244.336C257.006 245.417 255.824 248.667 256.77 251.855Z" fill="white"/>
<path d="M253.944 251.854H265.089C265.153 250.68 264.95 249.508 264.495 248.424C263.077 244.995 259.628 243.167 256.792 244.342C254.18 245.416 252.997 248.666 253.944 251.854Z" fill="#24272D"/>
<path d="M314.947 184.31V248.085C314.947 249.085 314.55 250.043 313.842 250.75C313.135 251.457 312.175 251.854 311.175 251.854H308.659C309.66 251.854 310.62 251.457 311.327 250.75C312.035 250.043 312.432 249.085 312.432 248.085V184.31C312.432 183.31 312.035 182.352 311.327 181.645C310.62 180.938 309.66 180.541 308.659 180.541H311.175C312.175 180.541 313.135 180.938 313.842 181.645C314.55 182.352 314.947 183.31 314.947 184.31Z" fill="#24272D"/>
<path d="M308.658 180.546H193.733C191.649 180.546 189.96 182.234 189.96 184.315V248.09C189.96 250.172 191.649 251.859 193.733 251.859H308.658C310.742 251.859 312.431 250.172 312.431 248.09V184.315C312.431 182.234 310.742 180.546 308.658 180.546Z" fill="#72A065"/>
<path d="M308.02 184.224H198.597V247.023H308.02V184.224Z" fill="white"/>
<path d="M28.7445 371.398L12.3077 388.083L27.5812 397.231H74.6783L49.6049 383.903L28.7445 371.398Z" fill="black"/>
<path d="M121.424 376.283L110.908 397.23H171.103L146.029 383.902L121.424 376.283Z" fill="black"/>
<path d="M56.3339 387.614L112.901 331.143C117.989 326.059 121.328 319.492 122.436 312.389L127.272 281.396L148.444 312.226L115.23 375.825L151.305 386.503L185.436 331.577C188.557 326.555 190.127 320.725 189.946 314.816C189.766 308.908 187.845 303.184 184.423 298.361L151.411 250.765L97.7749 237.49L93.5966 244.038C89.4306 250.566 86.9942 258.045 86.5163 265.773L84.1269 304.224L20.0774 370.059L56.3339 387.614Z" fill="#F29826"/>
<path d="M123.505 266.056C123.505 266.056 119.635 266.784 113.696 268.151C113.696 268.151 111.423 272.45 110.344 272.547C106.958 272.805 97.1174 269.174 102.208 258.949C107.298 248.724 123.505 250.099 123.505 250.099" fill="#FFB16D"/>
<path d="M85.7488 311.231L83.0229 303.886L89.7228 302.849" stroke="white" stroke-miterlimit="10" stroke-linecap="square"/>
<path d="M153.324 317.562L147.077 311.972L155.732 307.651" stroke="white" stroke-miterlimit="10" stroke-linecap="square"/>
<path d="M128.222 272.414L126.216 294.303" stroke="white" stroke-miterlimit="10" stroke-linecap="square"/>
<path d="M135.939 179.574C115.909 175.171 97.7744 237.49 97.7744 237.49L151.411 250.774C151.411 250.774 163.773 185.692 135.939 179.574Z" fill="#F7D001"/>
<path d="M134.43 179.372C134.43 179.372 122.732 178.345 117.17 181.501C114.007 183.297 101.261 196.986 90.8453 208.474C84.5573 215.408 88.3301 226.688 97.4477 228.258L151.295 237.491L153.008 218.259L120.877 210.129L127.328 200.237" fill="#F7D001"/>
<path d="M139.027 180.557C139.027 180.557 160.315 186.725 163.798 192.327C167.282 197.93 164.807 237.489 164.807 237.489L124.715 269.365L109.237 250.773L143.394 222.861" fill="#F7D001"/>
<path d="M153.3 174.558C162.968 173.017 169.448 163.278 167.774 152.807C166.101 142.335 156.907 135.096 147.24 136.637C137.573 138.179 131.092 147.917 132.766 158.389C134.44 168.86 143.633 176.1 153.3 174.558Z" fill="#24272D"/>
<path d="M141.791 195.303C143.368 195.113 144.839 194.416 145.983 193.316C147.126 192.216 147.88 190.774 148.13 189.208L152.028 164.681C152.3 162.787 151.814 160.862 150.677 159.322C149.539 157.782 147.841 156.75 145.949 156.45C144.057 156.15 142.123 156.605 140.564 157.717C139.005 158.83 137.946 160.51 137.616 162.395L133.718 186.921C133.542 188.034 133.626 189.173 133.965 190.248C134.304 191.323 134.887 192.305 135.669 193.117C136.451 193.929 137.411 194.549 138.473 194.928C139.535 195.307 140.671 195.436 141.791 195.303Z" fill="#FFB16D"/>
<path d="M146.838 183.228L148.331 183.458C150.065 183.719 151.835 183.597 153.516 183.099C155.196 182.601 156.747 181.739 158.057 180.575C159.367 179.411 160.405 177.974 161.096 176.365C161.788 174.755 162.116 173.014 162.058 171.263L161.744 162.59C161.645 159.789 160.563 157.113 158.688 155.029C156.812 152.945 154.262 151.587 151.485 151.193C148.353 150.76 145.178 151.585 142.654 153.486C140.13 155.387 138.463 158.21 138.019 161.336L136.827 169.781C136.392 172.887 137.199 176.039 139.072 178.555C140.945 181.071 143.735 182.75 146.838 183.228Z" fill="#FFB16D"/>
<path d="M155.449 164.266L158.395 171.587L155.414 171.998" stroke="white" stroke-miterlimit="10"/>
<path d="M152.75 168.416C153.464 168.416 154.043 167.838 154.043 167.125C154.043 166.412 153.464 165.834 152.75 165.834C152.037 165.834 151.458 166.412 151.458 167.125C151.458 167.838 152.037 168.416 152.75 168.416Z" fill="white"/>
<path d="M159.359 168.416C160.073 168.416 160.651 167.838 160.651 167.125C160.651 166.412 160.073 165.834 159.359 165.834C158.646 165.834 158.067 166.412 158.067 167.125C158.067 167.838 158.646 168.416 159.359 168.416Z" fill="white"/>
<path d="M150.592 173.897C150.592 173.897 153.94 173.686 155.66 176.409" stroke="white" stroke-miterlimit="10"/>
<path d="M105.278 182.843C105.278 182.843 103.244 198.781 116.628 198.621C138.784 198.354 142.34 183.814 140.805 175.416C140.176 172.072 138.123 169.591 135.819 167.22C147.766 164.604 146.952 156.79 146.952 156.79C146.952 156.79 169.17 167.301 167.888 153.298C166.605 139.295 153.469 133.746 144.446 134.519C123.472 136.318 122.853 149.662 117.228 151.584C85.32 162.487 105.278 182.843 105.278 182.843Z" fill="#24272D"/>
<path d="M135.462 171.079C136.931 173.657 140.214 174.556 142.794 173.088C145.374 171.621 146.275 168.342 144.805 165.765L142.388 161.524C140.918 158.947 137.636 158.047 135.055 159.515C132.475 160.982 131.575 164.261 133.044 166.839L135.462 171.079Z" fill="#FFB16D"/>
<path d="M136.665 162.727L140.098 168.744" stroke="white" stroke-miterlimit="10"/>
<path d="M205.738 268.86C235.878 268.86 260.311 244.455 260.311 214.349C260.311 184.243 235.878 159.838 205.738 159.838C175.597 159.838 151.164 184.243 151.164 214.349C151.164 244.455 175.597 268.86 205.738 268.86Z" fill="#415C20"/>
<path d="M215.483 268.86C245.623 268.86 270.056 244.455 270.056 214.349C270.056 184.243 245.623 159.838 215.483 159.838C185.342 159.838 160.909 184.243 160.909 214.349C160.909 244.455 185.342 268.86 215.483 268.86Z" fill="#5B822E"/>
<path d="M215.484 255.365C238.163 255.365 256.548 237.001 256.548 214.348C256.548 191.695 238.163 173.331 215.484 173.331C192.806 173.331 174.421 191.695 174.421 214.348C174.421 237.001 192.806 255.365 215.484 255.365Z" fill="#8FCF46"/>
<path d="M145.643 224.457L154.053 221.317C154.053 221.317 163.859 228.254 166.315 223.515C166.315 223.515 167.887 224.564 168.647 223.779C169.408 222.994 167.346 218.06 167.346 218.06C167.346 218.06 168.355 213.886 165.591 211.051C162.828 208.215 155.311 202.945 154.053 203.58C152.795 204.214 145.649 211.911 145.649 211.911L145.643 224.457Z" fill="#FFB16D"/>
<path d="M101.536 229.116L143.87 230.049" stroke="white" stroke-miterlimit="10"/>
<path d="M141.614 208.295L112.142 207.039" stroke="white" stroke-miterlimit="10"/>
<path d="M123.942 200.672L117.075 207.185" stroke="white" stroke-miterlimit="10"/>
<path d="M119.045 242.76L134.844 229.846" stroke="white" stroke-miterlimit="10"/>
<path d="M228.789 229.62C226.704 231.812 223.682 233.213 219.725 233.825V239.845H213.418V234.045C210.885 233.88 208.381 233.415 205.957 232.66C203.884 232.05 201.917 231.125 200.125 229.918L203.54 221.998C205.307 223.176 207.236 224.09 209.268 224.711C211.339 225.383 213.501 225.73 215.679 225.741C219.661 225.741 221.652 224.71 221.652 222.648C221.652 221.564 221.083 220.759 219.945 220.233C218.807 219.708 216.977 219.156 214.456 218.578C212.099 218.083 209.78 217.422 207.517 216.6C205.661 215.893 204.016 214.726 202.738 213.208C201.405 211.655 200.738 209.561 200.738 206.927C200.716 205.443 200.993 203.969 201.553 202.593C202.113 201.218 202.945 199.97 203.999 198.922C206.168 196.699 209.303 195.338 213.402 194.84V188.873H219.709V194.733C221.658 194.906 223.585 195.269 225.463 195.816C227.185 196.309 228.836 197.021 230.377 197.933L227.17 205.91C223.668 203.956 220.27 202.98 216.977 202.98C214.908 202.98 213.401 203.294 212.456 203.922C211.511 204.55 211.038 205.373 211.038 206.39C211.038 207.401 211.599 208.16 212.72 208.667C213.841 209.174 215.645 209.697 218.131 210.237C220.501 210.724 222.833 211.383 225.107 212.209C226.954 212.921 228.596 214.076 229.889 215.573C231.237 217.112 231.911 219.205 231.911 221.854C231.928 223.29 231.661 224.715 231.125 226.048C230.59 227.38 229.796 228.594 228.789 229.62Z" fill="#55A603"/>
<path d="M118.924 33.8462L90.7693 61.9683" stroke="#55A603" stroke-opacity="0.25" stroke-width="21" stroke-miterlimit="10"/>
<path d="M315.777 109.116C310.039 109.26 304.104 107.093 297.97 102.614L289.882 110.693L281.422 102.244L289.216 94.4446C286.039 90.8291 283.304 86.8495 281.066 82.5893C278.908 78.4531 277.527 74.6211 276.923 71.0933L292.14 65.0435C292.925 68.9917 294.286 72.8033 296.179 76.3563C298.056 80.0315 300.49 83.3953 303.394 86.3291C308.751 91.6772 312.814 92.9693 315.583 90.2054C317.038 88.7493 317.355 86.9075 316.532 84.6802C315.71 82.4528 313.996 79.2603 311.389 75.1025C308.898 71.2922 306.678 67.3114 304.746 63.1898C303.204 59.756 302.564 55.986 302.887 52.2362C303.189 48.3635 305.114 44.6572 308.663 41.1174C310.624 39.0974 312.972 37.4924 315.567 36.3981C318.163 35.3038 320.952 34.7426 323.769 34.7479C329.672 34.6737 335.712 37.0423 341.889 41.8539L349.902 33.8462L358.361 42.2958L350.492 50.1562C352.874 52.998 354.971 56.0677 356.75 59.3207C358.401 62.2857 359.661 65.4519 360.497 68.7402L345.489 75.1456C343.412 67.8313 340.166 61.9635 335.749 57.5424C332.985 54.7737 330.542 53.1835 328.423 52.7715C326.303 52.3596 324.564 52.8302 323.204 54.1834C321.845 55.5413 321.576 57.3112 322.399 59.4931C323.221 61.6749 324.937 64.7956 327.545 68.8552C330.475 73.4368 332.702 77.4317 334.224 80.8398C335.746 84.2677 336.397 88.0178 336.12 91.7574C335.863 95.6253 333.963 99.3304 330.419 102.873C328.511 104.826 326.235 106.384 323.723 107.455C321.21 108.527 318.509 109.092 315.777 109.116Z" fill="#55A603" fill-opacity="0.25"/>
<path d="M78.8709 175.366C73.9196 180.568 66.7395 183.898 57.3308 185.357V199.669H42.3618V185.874C36.3414 185.485 30.3889 184.381 24.6305 182.583C19.051 180.823 14.4306 178.653 10.7692 176.074L18.8867 157.249C23.0831 160.051 27.6685 162.222 32.4963 163.694C37.418 165.29 42.5571 166.116 47.7315 166.144C57.2194 166.144 61.9645 163.694 61.9669 158.794C61.9669 156.214 60.6133 154.298 57.9063 153.046C55.1992 151.793 50.8497 150.476 44.8578 149.094C38.2832 147.635 32.7888 146.067 28.3746 144.388C23.9588 142.721 20.0429 139.955 16.9985 136.351C13.8335 132.658 12.2522 127.673 12.2546 121.396C12.2546 114.002 14.8346 107.663 19.9945 102.377C25.1544 97.0911 32.6054 93.8459 42.3474 92.6412V78.4615H57.3308V92.3897C61.9603 92.7992 66.5381 93.6632 70.9979 94.9691C75.0898 96.1372 79.0137 97.8276 82.6725 99.9986L75.0549 118.953C66.7276 114.311 58.6532 111.989 50.8318 111.987C45.9188 111.987 42.339 112.74 40.0923 114.247C37.8456 115.753 36.7211 117.708 36.7187 120.113C36.7187 122.52 38.0519 124.325 40.7181 125.527C43.3844 126.729 47.6715 127.976 53.5796 129.267C60.2357 130.73 65.7505 132.299 70.1239 133.973C74.5116 135.664 78.414 138.409 81.4856 141.966C84.6914 145.623 86.2943 150.588 86.2943 156.861C86.2991 163.996 83.8246 170.164 78.8709 175.366Z" fill="#55A603" fill-opacity="0.25"/>
<path d="M378.948 205.107C376.574 207.617 373.118 209.22 368.579 209.917V216.807H361.36V210.165C358.463 209.979 355.597 209.449 352.826 208.584C350.454 207.885 348.204 206.828 346.154 205.448L350.06 196.388C352.081 197.736 354.289 198.781 356.613 199.492C358.982 200.259 361.456 200.657 363.946 200.67C368.502 200.67 370.78 199.49 370.78 197.131C370.78 195.888 370.129 194.967 368.827 194.369C367.525 193.77 365.432 193.139 362.547 192.475C359.852 191.909 357.201 191.151 354.613 190.209C352.488 189.404 350.605 188.07 349.143 186.332C347.618 184.553 346.856 182.158 346.859 179.147C346.833 177.45 347.149 175.764 347.789 174.192C348.43 172.619 349.38 171.191 350.585 169.994C353.083 167.436 356.675 165.867 361.36 165.287V158.462H368.575V165.165C370.804 165.363 373.009 165.778 375.157 166.405C377.128 166.968 379.018 167.782 380.782 168.826L377.113 177.951C373.107 175.716 369.22 174.599 365.453 174.599C363.09 174.599 361.364 174.958 360.285 175.677C359.206 176.395 358.659 177.344 358.659 178.504C358.659 179.665 359.303 180.53 360.583 181.109C361.864 181.687 363.928 182.291 366.777 182.905C369.483 183.465 372.144 184.222 374.74 185.172C376.852 185.986 378.731 187.307 380.21 189.019C381.754 190.78 382.525 193.175 382.523 196.204C382.544 197.85 382.239 199.484 381.626 201.012C381.012 202.54 380.102 203.932 378.948 205.107Z" fill="#55A603" fill-opacity="0.25"/>
</g>
<defs>
<clipPath id="clip0_2_293">
<rect width="400" height="400" rx="80" fill="white"/>
</clipPath>
</defs>
</svg>
