<svg width="166" height="31" viewBox="0 0 166 31" fill="none" xmlns="http://www.w3.org/2000/svg">
<path d="M0.272727 4.26136V0.727272H18.8409V4.26136H11.6477V24H7.46591V4.26136H0.272727ZM20.4261 24V6.54545H24.4148V9.45455H24.5966C24.9148 8.44697 25.4602 7.67045 26.233 7.125C27.0133 6.57197 27.9034 6.29545 28.9034 6.29545C29.1307 6.29545 29.3845 6.30682 29.6648 6.32954C29.9527 6.3447 30.1913 6.37121 30.3807 6.40909V10.1932C30.2064 10.1326 29.9299 10.0795 29.5511 10.0341C29.1799 9.98106 28.8201 9.95455 28.4716 9.95455C27.7216 9.95455 27.0473 10.1174 26.4489 10.4432C25.858 10.7614 25.392 11.2045 25.0511 11.7727C24.7102 12.3409 24.5398 12.9962 24.5398 13.7386V24H20.4261ZM44.2386 16.6591V6.54545H48.3523V24H44.3636V20.8977H44.1818C43.7879 21.875 43.1402 22.6742 42.2386 23.2955C41.3447 23.9167 40.2424 24.2273 38.9318 24.2273C37.7879 24.2273 36.7765 23.9735 35.8977 23.4659C35.0265 22.9508 34.3447 22.2045 33.8523 21.2273C33.3598 20.2424 33.1136 19.053 33.1136 17.6591V6.54545H37.2273V17.0227C37.2273 18.1288 37.5303 19.0076 38.1364 19.6591C38.7424 20.3106 39.5379 20.6364 40.5227 20.6364C41.1288 20.6364 41.7159 20.4886 42.2841 20.1932C42.8523 19.8977 43.3182 19.4583 43.6818 18.875C44.053 18.2841 44.2386 17.5455 44.2386 16.6591ZM66.3778 11.1591L62.6278 11.5682C62.5218 11.1894 62.3362 10.8333 62.071 10.5C61.8134 10.1667 61.465 9.89773 61.0256 9.69318C60.5862 9.48864 60.0483 9.38636 59.4119 9.38636C58.5559 9.38636 57.8362 9.57197 57.2528 9.94318C56.6771 10.3144 56.393 10.7955 56.4006 11.3864C56.393 11.8939 56.5786 12.3068 56.9574 12.625C57.3438 12.9432 57.9801 13.2045 58.8665 13.4091L61.8438 14.0455C63.4953 14.4015 64.7225 14.9659 65.5256 15.7386C66.3362 16.5114 66.7453 17.5227 66.7528 18.7727C66.7453 19.8712 66.4233 20.8409 65.7869 21.6818C65.1581 22.5152 64.2831 23.1667 63.1619 23.6364C62.0407 24.1061 60.7528 24.3409 59.2983 24.3409C57.1619 24.3409 55.4422 23.8939 54.1392 23C52.8362 22.0985 52.0597 20.8447 51.8097 19.2386L55.821 18.8523C56.0028 19.6402 56.3892 20.2348 56.9801 20.6364C57.571 21.0379 58.34 21.2386 59.2869 21.2386C60.2642 21.2386 61.0483 21.0379 61.6392 20.6364C62.2377 20.2348 62.5369 19.7386 62.5369 19.1477C62.5369 18.6477 62.3438 18.2348 61.9574 17.9091C61.5786 17.5833 60.9877 17.3333 60.1847 17.1591L57.2074 16.5341C55.5331 16.1856 54.2945 15.5985 53.4915 14.7727C52.6884 13.9394 52.2907 12.8864 52.2983 11.6136C52.2907 10.5379 52.5824 9.60606 53.1733 8.81818C53.7718 8.02273 54.6013 7.40909 55.6619 6.97727C56.7301 6.53788 57.9612 6.31818 59.3551 6.31818C61.4006 6.31818 63.0104 6.75379 64.1847 7.625C65.3665 8.49621 66.0975 9.67424 66.3778 11.1591ZM78.8608 6.54545V9.72727H68.8267V6.54545H78.8608ZM71.304 2.36364H75.4176V18.75C75.4176 19.303 75.5009 19.7273 75.6676 20.0227C75.8419 20.3106 76.0691 20.5076 76.3494 20.6136C76.6297 20.7197 76.9403 20.7727 77.2812 20.7727C77.5388 20.7727 77.7737 20.7538 77.9858 20.7159C78.2055 20.678 78.3722 20.6439 78.4858 20.6136L79.179 23.8295C78.9593 23.9053 78.6449 23.9886 78.2358 24.0795C77.8343 24.1705 77.3419 24.2235 76.7585 24.2386C75.7282 24.2689 74.8002 24.1136 73.9744 23.7727C73.1487 23.4242 72.4934 22.8864 72.0085 22.1591C71.5313 21.4318 71.2964 20.5227 71.304 19.4318V2.36364ZM89.8409 24.3409C88.0909 24.3409 86.5795 23.9773 85.3068 23.25C84.0417 22.5152 83.0682 21.4773 82.3864 20.1364C81.7045 18.7879 81.3636 17.2008 81.3636 15.375C81.3636 13.5795 81.7045 12.0038 82.3864 10.6477C83.0758 9.28409 84.0379 8.22348 85.2727 7.46591C86.5076 6.70076 87.9583 6.31818 89.625 6.31818C90.7008 6.31818 91.7159 6.49242 92.6705 6.84091C93.6326 7.18182 94.4811 7.71212 95.2159 8.43182C95.9583 9.15151 96.5417 10.0682 96.9659 11.1818C97.3902 12.2879 97.6023 13.6061 97.6023 15.1364V16.3977H83.2955V13.625H93.6591C93.6515 12.8371 93.4811 12.1364 93.1477 11.5227C92.8144 10.9015 92.3485 10.4129 91.75 10.0568C91.1591 9.70076 90.4697 9.52273 89.6818 9.52273C88.8409 9.52273 88.1023 9.72727 87.4659 10.1364C86.8295 10.5379 86.3333 11.0682 85.9773 11.7273C85.6288 12.3788 85.4508 13.0947 85.4432 13.875V16.2955C85.4432 17.3106 85.6288 18.1818 86 18.9091C86.3712 19.6288 86.8902 20.1818 87.5568 20.5682C88.2235 20.947 89.0038 21.1364 89.8977 21.1364C90.4962 21.1364 91.0379 21.053 91.5227 20.8864C92.0076 20.7121 92.428 20.4583 92.7841 20.125C93.1402 19.7917 93.4091 19.3788 93.5909 18.8864L97.4318 19.3182C97.1894 20.3333 96.7273 21.2197 96.0455 21.9773C95.3712 22.7273 94.5076 23.3106 93.4545 23.7273C92.4015 24.1364 91.197 24.3409 89.8409 24.3409ZM107.56 24.3068C106.188 24.3068 104.961 23.9545 103.878 23.25C102.795 22.5455 101.938 21.5227 101.31 20.1818C100.681 18.8409 100.366 17.2121 100.366 15.2955C100.366 13.3561 100.685 11.7197 101.321 10.3864C101.965 9.04545 102.832 8.03409 103.923 7.35227C105.014 6.66288 106.23 6.31818 107.571 6.31818C108.594 6.31818 109.435 6.49242 110.094 6.84091C110.753 7.18182 111.276 7.5947 111.662 8.07955C112.048 8.55682 112.348 9.00758 112.56 9.43182H112.73V0.727272H116.855V24H112.81V21.25H112.56C112.348 21.6742 112.041 22.125 111.639 22.6023C111.238 23.072 110.707 23.4735 110.048 23.8068C109.389 24.1402 108.56 24.3068 107.56 24.3068ZM108.707 20.9318C109.579 20.9318 110.321 20.697 110.935 20.2273C111.548 19.75 112.014 19.0871 112.332 18.2386C112.651 17.3902 112.81 16.4015 112.81 15.2727C112.81 14.1439 112.651 13.1629 112.332 12.3295C112.022 11.4962 111.56 10.8485 110.946 10.3864C110.34 9.92424 109.594 9.69318 108.707 9.69318C107.791 9.69318 107.026 9.93182 106.412 10.4091C105.798 10.8864 105.336 11.5455 105.026 12.3864C104.715 13.2273 104.56 14.1894 104.56 15.2727C104.56 16.3636 104.715 17.3371 105.026 18.1932C105.344 19.0417 105.81 19.7121 106.423 20.2045C107.045 20.6894 107.806 20.9318 108.707 20.9318ZM129.358 24V0.727272H138.267C139.949 0.727272 141.347 0.992423 142.46 1.52273C143.581 2.04545 144.419 2.76136 144.972 3.67045C145.532 4.57954 145.812 5.60985 145.812 6.76136C145.812 7.70833 145.631 8.51894 145.267 9.19318C144.903 9.85985 144.415 10.4015 143.801 10.8182C143.188 11.2348 142.502 11.5341 141.744 11.7159V11.9432C142.57 11.9886 143.362 12.2424 144.119 12.7045C144.884 13.1591 145.509 13.803 145.994 14.6364C146.479 15.4697 146.722 16.4773 146.722 17.6591C146.722 18.8636 146.43 19.947 145.847 20.9091C145.263 21.8636 144.384 22.6174 143.21 23.1705C142.036 23.7235 140.559 24 138.778 24H129.358ZM133.574 20.4773H138.108C139.638 20.4773 140.741 20.1856 141.415 19.6023C142.097 19.0114 142.438 18.2538 142.438 17.3295C142.438 16.6402 142.267 16.0189 141.926 15.4659C141.585 14.9053 141.1 14.4659 140.472 14.1477C139.843 13.822 139.093 13.6591 138.222 13.6591H133.574V20.4773ZM133.574 10.625H137.744C138.472 10.625 139.127 10.4924 139.71 10.2273C140.294 9.95454 140.752 9.57197 141.085 9.07955C141.426 8.57955 141.597 7.98864 141.597 7.30682C141.597 6.4053 141.278 5.66288 140.642 5.07954C140.013 4.49621 139.078 4.20454 137.835 4.20454H133.574V10.625ZM152.764 30.5455C152.204 30.5455 151.685 30.5 151.207 30.4091C150.738 30.3258 150.363 30.2273 150.082 30.1136L151.037 26.9091C151.635 27.0833 152.17 27.1667 152.639 27.1591C153.109 27.1515 153.522 27.0038 153.878 26.7159C154.241 26.4356 154.548 25.9659 154.798 25.3068L155.151 24.3636L148.821 6.54545H153.185L157.207 19.7273H157.389L161.423 6.54545H165.798L158.81 26.1136C158.484 27.0379 158.052 27.8295 157.514 28.4886C156.976 29.1553 156.317 29.6629 155.537 30.0114C154.764 30.3674 153.84 30.5455 152.764 30.5455Z" fill="black"/>
</svg>
