<svg width="70" height="95" viewBox="0 0 70 95" fill="none" xmlns="http://www.w3.org/2000/svg">
<path d="M55.4258 0.404422C56.0427 0.739688 56.5201 1.26117 56.78 1.88366C57.0398 2.50616 57.0669 3.19288 56.8566 3.83164L45.505 38.411H66.4497C67.0652 38.4108 67.6673 38.5796 68.1817 38.8965C68.696 39.2134 69.1002 39.6646 69.3442 40.1943C69.5882 40.7241 69.6614 41.3093 69.5547 41.8776C69.448 42.4459 69.1662 42.9725 68.7439 43.3923L18.3205 93.6187C17.8326 94.1051 17.1834 94.4222 16.4787 94.5184C15.7739 94.6146 15.0552 94.4841 14.4396 94.1483C13.8241 93.8125 13.348 93.2911 13.089 92.6691C12.8301 92.0472 12.8034 91.3613 13.0135 90.7233L24.365 56.138H3.42042C2.80491 56.1382 2.2028 55.9695 1.68841 55.6526C1.17403 55.3357 0.769895 54.8845 0.525897 54.3547C0.281898 53.825 0.208718 53.2398 0.315389 52.6715C0.42206 52.1032 0.703913 51.5766 1.12615 51.1567L51.5495 0.930322C52.0368 0.444598 52.6851 0.127695 53.3888 0.0311421C54.0926 -0.0654111 54.8105 0.064063 55.4258 0.398513V0.404422Z" fill="white"/>
</svg>
