<svg width="145" height="82" viewBox="0 0 145 82" fill="none" xmlns="http://www.w3.org/2000/svg">
<path d="M144.064 4.185C143.334 2.53564 141.935 1.22496 140.176 0.539999C139.311 0.194123 138.381 0.0106649 137.44 0H101.44C99.5306 0 97.6992 0.71116 96.349 1.97703C94.9987 3.2429 94.2401 4.95979 94.2401 6.75C94.2401 8.54021 94.9987 10.2571 96.349 11.523C97.6992 12.7888 99.5306 13.5 101.44 13.5H120.088L79.8401 51.2325L56.1521 28.9575C55.4828 28.3248 54.6865 27.8227 53.8091 27.48C52.9317 27.1373 51.9906 26.9609 51.0401 26.9609C50.0896 26.9609 49.1486 27.1373 48.2712 27.48C47.3938 27.8227 46.5975 28.3248 45.9281 28.9575L2.72814 69.4575C2.05329 70.085 1.51765 70.8316 1.15212 71.6541C0.786584 72.4767 0.598389 73.3589 0.598389 74.25C0.598389 75.1411 0.786584 76.0233 1.15212 76.8459C1.51765 77.6684 2.05329 78.415 2.72814 79.0425C3.39747 79.6752 4.1938 80.1773 5.07119 80.52C5.94857 80.8627 6.88965 81.0391 7.84014 81.0391C8.79062 81.0391 9.7317 80.8627 10.6091 80.52C11.4865 80.1773 12.2828 79.6752 12.9521 79.0425L51.0401 43.2675L74.7281 65.5425C75.3975 66.1752 76.1938 66.6773 77.0712 67.02C77.9486 67.3627 78.8896 67.5391 79.8401 67.5391C80.7906 67.5391 81.7317 67.3627 82.6091 67.02C83.4865 66.6773 84.2828 66.1752 84.9521 65.5425L130.24 23.0175V40.5C130.24 42.2902 130.999 44.0071 132.349 45.273C133.699 46.5388 135.531 47.25 137.44 47.25C139.35 47.25 141.181 46.5388 142.531 45.273C143.882 44.0071 144.64 42.2902 144.64 40.5V6.75C144.629 5.86793 144.433 4.9965 144.064 4.185Z" fill="white"/>
</svg>
