<svg width="798" height="395" viewBox="0 0 798 395" fill="none" xmlns="http://www.w3.org/2000/svg">
<path d="M796.994 214.787L609.827 390.446H538.085L725.257 214.787H796.994Z" fill="#FF9900"/>
<path d="M781.676 209.618H730.395L535.124 7.99805H586.415L781.676 209.618Z" fill="white" stroke="#FFCD82" stroke-width="13"/>
<path d="M725.397 215.175L537.974 390.446L337.449 175.276L524.867 0L725.397 215.175Z" fill="#FFCD82"/>
<path d="M319.968 390.446L301.655 362.973L283.337 390.446H319.968Z" fill="#F29826"/>
<path d="M527.846 207.295L534.754 178.158L505.616 182.879L527.846 207.295Z" fill="#2B292D"/>
<path d="M483.972 390.445L436.521 318.85L389.066 390.445H483.972Z" fill="black"/>
<path d="M393.226 297.205H354.098V390.445H393.226V297.205Z" fill="#FFD700"/>
<path d="M555.366 200.35L537.153 217.191L577.431 260.747L595.643 243.906L555.366 200.35Z" fill="#2B292D"/>
<path d="M343.276 390.445C343.276 376.314 348.846 362.762 358.76 352.77C368.674 342.778 382.12 337.165 396.14 337.165C410.161 337.165 423.607 342.778 433.521 352.77C443.435 362.762 449.005 376.314 449.005 390.445" fill="#55A603"/>
<path d="M495.99 172.329C498.38 170.146 500.312 167.52 501.675 164.6C503.038 161.68 503.805 158.524 503.932 155.311C504.059 152.099 503.545 148.893 502.418 145.876C501.29 142.86 499.572 140.093 497.362 137.732C495.151 135.372 492.492 133.464 489.535 132.118C486.578 130.773 483.381 130.015 480.128 129.89C476.875 129.764 473.628 130.272 470.573 131.385C467.519 132.498 464.716 134.195 462.326 136.377L495.99 172.329Z" fill="#2B292D"/>
<path d="M333.994 387.445C149.531 387.445 -0.00561523 389.012 -0.00561523 390.945C-0.00561523 392.878 149.531 394.445 333.994 394.445C518.458 394.445 667.994 392.878 667.994 390.945C667.994 389.012 518.458 387.445 333.994 387.445Z" fill="black"/>
</svg>
