<svg width="70" height="70" viewBox="0 0 70 70" fill="none" xmlns="http://www.w3.org/2000/svg">
<rect width="70" height="70" rx="20" fill="#FFF8CA"/>
<path d="M47.5467 29.4401C47.028 25.3015 47.6217 21.0995 49.2667 17.2667C49.5067 16.7867 49.96 16.2267 49.5067 15.7067C49.0533 15.1867 48.4267 15.5467 47.8933 15.7067C46.5183 16.1067 45.241 16.7871 44.1418 17.705C43.0427 18.6229 42.1454 19.7584 41.5067 21.0401C41.1467 21.6667 40.8933 22.2934 39.92 22.1601C36.6348 21.7317 33.3123 21.6691 30.0133 21.9734C27.5395 22.1233 25.1238 22.7862 22.92 23.9201C19.5223 25.7903 16.8577 28.7557 15.36 32.3334C15.2873 32.1574 15.2337 31.9741 15.2 31.7867C14.8267 30.0534 13.8667 29.1201 12.36 29.3467H12.3333C11.9895 29.39 11.6582 29.503 11.3596 29.6788C11.061 29.8546 10.8014 30.0894 10.5967 30.369C10.392 30.6486 10.2465 30.967 10.1691 31.3048C10.0917 31.6426 10.0841 31.9926 10.1467 32.3334C10.0662 33.8088 10.3444 35.2818 10.9574 36.6262C11.5704 37.9707 12.5 39.1466 13.6667 40.0534C14.0915 40.3443 14.395 40.7806 14.52 41.2801C15.3037 44.5792 17.1153 47.544 19.6933 49.7467C20.1594 50.1282 20.5247 50.6183 20.7571 51.1739C20.9896 51.7295 21.0822 52.3337 21.0267 52.9334C20.6667 56.5601 22.1067 58.4001 26.0533 58.9334C26.3566 59.0046 26.6638 59.058 26.9733 59.0934C29.64 59.6401 29.3467 59.6267 29.84 57.2001C30.1733 55.5734 30.8267 55.0934 32.5067 55.3467C33.8671 55.5334 35.2412 55.6003 36.6133 55.5467C39.9067 55.5467 39.92 55.5467 40.8133 58.6267C40.9733 59.1867 41.0933 59.8001 41.88 59.6534C43.7052 59.48 45.4989 59.063 47.2133 58.4134C47.8639 58.1931 48.4326 57.7809 48.8443 57.2311C49.2561 56.6813 49.4916 56.0197 49.52 55.3334C49.24 52.4934 50.16 51.3334 51.8667 49.2134C52.1067 48.9334 52.6133 48.4401 52.8933 48.0401C53.3976 47.239 54.0873 46.5711 54.9043 46.093C55.7212 45.6149 56.6413 45.3406 57.5867 45.2934C59.2 45.2134 59.92 44.7201 59.92 42.8667V37.2667C59.98 36.6875 59.8093 36.1079 59.4449 35.6537C59.0805 35.1994 58.5518 34.9071 57.9733 34.8401C57.061 34.6581 56.2076 34.2539 55.4889 33.6631C54.7702 33.0723 54.2084 32.3133 53.8533 31.4534C52.4363 28.6751 50.2522 26.3614 47.56 24.7867M49.7333 39.2667C49.1024 39.2289 48.5122 38.9424 48.0922 38.4699C47.6723 37.9975 47.4569 37.3778 47.4933 36.7467C47.5278 36.1264 47.8068 35.5451 48.2692 35.1302C48.7316 34.7153 49.3396 34.5007 49.96 34.5334C50.2834 34.5354 50.603 34.6032 50.8994 34.7325C51.1958 34.8619 51.4628 35.0501 51.6842 35.2858C51.9056 35.5215 52.0769 35.7997 52.1875 36.1036C52.2981 36.4074 52.3458 36.7306 52.3277 37.0535C52.3097 37.3764 52.2261 37.6922 52.0823 37.9818C51.9384 38.2714 51.7372 38.5288 51.4908 38.7383C51.2444 38.9478 50.9581 39.105 50.6491 39.2004C50.3401 39.2958 50.0149 39.3275 49.6933 39.2934L49.7333 39.2667Z" stroke="black" stroke-width="3" stroke-linecap="round" stroke-linejoin="round"/>
<path d="M25.5866 22.7601C24.5112 22.0649 23.6745 21.057 23.1892 19.8719C22.7039 18.6868 22.5933 17.3815 22.8724 16.1316C23.1514 14.8818 23.8067 13.7475 24.7499 12.8813C25.6932 12.0152 26.8791 11.4588 28.1482 11.2871C29.4172 11.1154 30.7084 11.3365 31.8479 11.9209C32.9874 12.5052 33.9206 13.4246 34.5217 14.5553C35.1229 15.6861 35.3632 16.9738 35.2103 18.2452C35.0574 19.5167 34.5187 20.7108 33.6666 21.6668" stroke="black" stroke-width="3" stroke-linecap="round" stroke-linejoin="round"/>
</svg>
