<svg width="50" height="50" viewBox="0 0 50 50" fill="none" xmlns="http://www.w3.org/2000/svg">
<path d="M17.5375 37.5H7.8125C7.3981 37.5 7.00067 37.3354 6.70765 37.0424C6.41462 36.7493 6.25 36.3519 6.25 35.9375V9.375H3.125C2.7106 9.375 2.31317 9.21038 2.02015 8.91735C1.72712 8.62433 1.5625 8.2269 1.5625 7.8125C1.5625 7.3981 1.72712 7.00067 2.02015 6.70765C2.31317 6.41462 2.7106 6.25 3.125 6.25H46.875C47.2894 6.25 47.6868 6.41462 47.9799 6.70765C48.2729 7.00067 48.4375 7.3981 48.4375 7.8125C48.4375 8.2269 48.2729 8.62433 47.9799 8.91735C47.6868 9.21038 47.2894 9.375 46.875 9.375H43.75V35.9375C43.75 36.3519 43.5854 36.7493 43.2924 37.0424C42.9993 37.3354 42.6019 37.5 42.1875 37.5H32.4813L37.8938 46.875H34.2875L28.875 37.5H21.1437L15.7312 46.875H12.125L17.5375 37.5ZM40.625 9.375H9.375V34.375H40.625V9.375ZM16.7313 26.1063C16.586 26.2515 16.4135 26.3668 16.2237 26.4454C16.0339 26.524 15.8305 26.5645 15.625 26.5645C15.4195 26.5645 15.2161 26.524 15.0263 26.4454C14.8365 26.3668 14.664 26.2515 14.5187 26.1063C14.3735 25.961 14.2582 25.7885 14.1796 25.5987C14.101 25.4089 14.0605 25.2055 14.0605 25C14.0605 24.7945 14.101 24.5911 14.1796 24.4013C14.2582 24.2115 14.3735 24.039 14.5187 23.8937L21.7281 16.6875L27.8531 21.2812L33.1562 14.65C33.2804 14.4789 33.4379 14.3347 33.6194 14.2263C33.8008 14.1178 34.0024 14.0473 34.2119 14.019C34.4214 13.9907 34.6344 14.0052 34.8382 14.0617C35.0419 14.1181 35.232 14.2153 35.3971 14.3474C35.5622 14.4794 35.6987 14.6436 35.7985 14.83C35.8983 15.0163 35.9592 15.221 35.9776 15.4316C35.996 15.6422 35.9715 15.8543 35.9055 16.0551C35.8395 16.256 35.7334 16.4413 35.5938 16.6L28.4 25.5969L22.0219 20.8125L16.7313 26.1031V26.1063Z" fill="black"/>
</svg>
