<svg width="400" height="400" viewBox="0 0 400 400" fill="none" xmlns="http://www.w3.org/2000/svg">
<g clip-path="url(#clip0_2_89)">
<rect width="400" height="400" rx="80" fill="#FCF3B8" fill-opacity="0.34"/>
<path d="M167.809 161.105L234.426 226.52C242.412 234.362 246.654 244.775 246.217 255.467C245.781 266.16 240.703 276.256 232.1 283.535C223.497 290.815 212.074 294.681 200.344 294.283C188.613 293.886 177.537 289.257 169.551 281.415L144.667 256.98C137.973 250.406 132.764 242.695 129.339 234.287C125.914 225.878 124.339 216.937 124.705 207.973C125.071 199.01 127.37 190.2 131.472 182.047C135.573 173.894 141.396 166.557 148.608 160.454C151.249 158.22 154.755 157.034 158.356 157.156C161.957 157.278 165.357 158.699 167.809 161.105Z" fill="#FFC774"/>
<mask id="mask0_2_89" style="mask-type:luminance" maskUnits="userSpaceOnUse" x="124" y="157" width="122" height="138">
<path d="M167.581 161.52L233.424 227.594C237.285 231.469 240.271 235.999 242.212 240.926C244.153 245.852 245.01 251.08 244.734 256.309C244.459 261.539 243.056 266.668 240.605 271.403C238.155 276.139 234.705 280.389 230.453 283.91C221.865 291.02 210.531 294.729 198.945 294.222C187.358 293.715 176.469 289.033 168.671 281.208L144.073 256.523C137.503 249.931 132.422 242.223 129.12 233.841C125.818 225.459 124.36 216.565 124.829 207.669C125.297 198.772 127.684 190.046 131.852 181.99C136.021 173.933 141.889 166.704 149.123 160.715C151.69 158.589 155.077 157.481 158.539 157.633C162 157.784 165.253 159.183 167.581 161.52Z" fill="white" stroke="white"/>
</mask>
<g mask="url(#mask0_2_89)">
<path d="M265.281 234.859L242.442 246.581" stroke="#F29826" stroke-width="31" stroke-miterlimit="10" stroke-linecap="round"/>
<path d="M165.827 271.632L177.186 290.022" stroke="#F29826" stroke-width="31" stroke-miterlimit="10" stroke-linecap="round"/>
<path d="M220.846 245.074L232.205 263.465" stroke="#F29826" stroke-width="31" stroke-miterlimit="10" stroke-linecap="round"/>
<path d="M232.689 206.445L244.048 224.835" stroke="#F29826" stroke-width="31" stroke-miterlimit="10" stroke-linecap="round"/>
<path d="M190.171 254.084L177.311 233.263" stroke="#F29826" stroke-width="31" stroke-miterlimit="10" stroke-linecap="round"/>
<path d="M219.985 303.905L207.126 283.084" stroke="#F29826" stroke-width="31" stroke-miterlimit="10" stroke-linecap="round"/>
<path d="M167.112 252.206L146.937 262.56" stroke="#F29826" stroke-width="31" stroke-miterlimit="10" stroke-linecap="round"/>
<path d="M254.081 275.485L233.902 285.839" stroke="#F29826" stroke-width="31" stroke-miterlimit="10" stroke-linecap="round"/>
<path d="M209.519 264.128L189.343 274.482" stroke="#F29826" stroke-width="31" stroke-miterlimit="10" stroke-linecap="round"/>
<path d="M221.34 224.375L201.165 234.729" stroke="#F29826" stroke-width="31" stroke-miterlimit="10" stroke-linecap="round"/>
<path d="M192.599 173.734L169.757 185.453" stroke="#F29826" stroke-width="31" stroke-miterlimit="10" stroke-linecap="round"/>
<path d="M190.541 194.75L201.9 213.143" stroke="#F29826" stroke-width="31" stroke-miterlimit="10" stroke-linecap="round"/>
<path d="M148.161 183.949L159.52 202.34" stroke="#F29826" stroke-width="31" stroke-miterlimit="10" stroke-linecap="round"/>
<path d="M160.008 145.317L171.368 163.708" stroke="#F29826" stroke-width="31" stroke-miterlimit="10" stroke-linecap="round"/>
<path d="M117.49 192.959L104.63 172.138" stroke="#F29826" stroke-width="31" stroke-miterlimit="10" stroke-linecap="round"/>
<path d="M147.302 242.78L134.445 221.959" stroke="#F29826" stroke-width="31" stroke-miterlimit="10" stroke-linecap="round"/>
<path d="M181.397 214.36L161.222 224.714" stroke="#F29826" stroke-width="31" stroke-miterlimit="10" stroke-linecap="round"/>
<path d="M136.839 203.003L116.663 213.357" stroke="#F29826" stroke-width="31" stroke-miterlimit="10" stroke-linecap="round"/>
<path d="M148.665 163.252L128.49 173.606" stroke="#F29826" stroke-width="31" stroke-miterlimit="10" stroke-linecap="round"/>
</g>
<path d="M90.1115 206.969L75.4035 259.863L169.087 262.742L172.212 251.51L90.1115 206.969Z" fill="#232B2F"/>
<path d="M255.942 349.231L217.842 343.901L222.98 331.355L238.314 334.599L255.942 349.231Z" fill="#24272D"/>
<path d="M294.573 339.106L256.476 333.778L261.614 321.233L276.946 324.476L294.573 339.106Z" fill="#24272D"/>
<path d="M209.607 209.797L242.896 202.002L285.03 248.786C287.601 251.677 289.51 255.008 290.645 258.582C291.78 262.156 292.117 265.902 291.637 269.597L284.168 325.531L256.865 325.262L265.069 266.812L224.689 241.061C217.291 235.16 212.388 226.86 210.896 217.724L209.607 209.797Z" fill="#F6D001"/>
<path d="M211.288 156.326C222.582 151.35 241.107 150.961 249.249 152.715C257.392 154.469 265.667 184.126 265.667 184.126L284.316 208.268L266.05 218.965L244.217 190.422L252.887 183.364C252.887 183.364 244.965 194.537 242.931 202.662H205.281C205.281 202.662 207.671 186.567 208.339 177.361" fill="#F0D173"/>
<path d="M286.267 255.653C305.898 255.653 321.813 241.146 321.813 223.252C321.813 205.357 305.898 190.851 286.267 190.851C266.636 190.851 250.721 205.357 250.721 223.252C250.721 241.146 266.636 255.653 286.267 255.653Z" fill="#232B2F"/>
<path d="M321.818 223.25C321.818 278.315 272.848 322.956 212.438 322.956C152.029 322.956 103.056 278.315 103.056 223.25" fill="#232B2F"/>
<path d="M249.724 165.929L255.244 178.348L249.397 191.959" stroke="white" stroke-miterlimit="10"/>
<path d="M205.44 202.601H239.703L269.131 257.65C270.917 261.012 271.951 264.664 272.174 268.395C272.397 272.125 271.804 275.858 270.428 279.377L248.675 334.949H217.897L237.452 268.779L212.414 236.391C206.644 228.862 203.933 219.734 204.749 210.578L205.44 202.601Z" fill="#F7D001"/>
<path d="M261.589 209.152H264.066C265.077 209.133 266.086 209.23 267.071 209.439C268.907 209.796 269.581 211.011 272.662 211.148C276.144 211.306 273.642 214.067 271.965 214.367C270.655 214.592 269.078 213.999 268.021 214.74C268.316 215.437 268.372 216.969 272.289 219.984C274.531 221.709 278.468 222.184 277.585 226.454C276.358 229.718 270.776 229.912 269.24 229.338C264.752 227.661 261.203 224.241 259.352 221.465C258.511 220.129 257.786 218.735 257.183 217.296" fill="#F4B835"/>
<path d="M254.219 195.163L270.728 206.539L254.564 222.277L216.876 198.814C216.876 198.814 203.927 170.367 212.9 162.373" fill="#F0D173"/>
<path d="M253.434 136.099C259.55 136.099 264.508 130.328 264.508 123.208C264.508 116.088 259.55 110.316 253.434 110.316C247.318 110.316 242.36 116.088 242.36 123.208C242.36 130.328 247.318 136.099 253.434 136.099Z" fill="#24272D"/>
<path d="M236.72 158.93C238.368 158.93 239.97 158.439 241.283 157.532C242.597 156.626 243.55 155.354 243.998 153.909L251.028 131.296C251.328 130.416 251.433 129.491 251.334 128.574C251.236 127.657 250.937 126.768 250.456 125.958C249.974 125.148 249.32 124.434 248.531 123.858C247.742 123.283 246.834 122.857 245.862 122.606C244.89 122.356 243.872 122.285 242.869 122.398C241.866 122.512 240.898 122.807 240.023 123.267C239.147 123.727 238.381 124.342 237.771 125.076C237.16 125.81 236.717 126.648 236.467 127.541L229.437 150.156C229.119 151.182 229.066 152.262 229.282 153.31C229.498 154.358 229.978 155.347 230.684 156.197C231.389 157.048 232.301 157.738 233.349 158.214C234.396 158.69 235.55 158.937 236.72 158.938V158.93Z" fill="#F4B835"/>
<path d="M243.639 148.889L244.96 149.224C246.497 149.611 248.109 149.685 249.681 149.439C251.253 149.194 252.747 148.636 254.055 147.805C255.364 146.974 256.456 145.89 257.253 144.631C258.05 143.372 258.533 141.968 258.667 140.52L259.335 133.341C259.55 131.025 258.864 128.714 257.397 126.813C255.929 124.912 253.775 123.542 251.31 122.944C248.528 122.273 245.566 122.636 243.077 123.955C240.588 125.273 238.776 127.439 238.038 129.975L236.049 136.821C235.318 139.338 235.704 142.016 237.125 144.275C238.546 146.534 240.886 148.192 243.639 148.889Z" fill="#F4B835"/>
<path d="M254.023 134.167L255.895 140.49L253.158 140.535" stroke="#25282D" stroke-miterlimit="10"/>
<path d="M250.724 136.624C251.457 136.624 252.051 136.082 252.051 135.414C252.051 134.746 251.457 134.204 250.724 134.204C249.991 134.204 249.397 134.746 249.397 135.414C249.397 136.082 249.991 136.624 250.724 136.624Z" fill="#24272D"/>
<path d="M257.107 136.624C257.84 136.624 258.434 136.082 258.434 135.414C258.434 134.746 257.84 134.204 257.107 134.204C256.374 134.204 255.78 134.746 255.78 135.414C255.78 136.082 256.374 136.624 257.107 136.624Z" fill="#24272D"/>
<path d="M250.348 142.931C250.348 142.931 248.718 142.848 248.047 141.558" stroke="#25282D" stroke-miterlimit="10"/>
<path d="M188.991 141.879C187.52 157.55 202.063 152.456 202.063 152.456C202.063 152.456 192.773 169.655 213.563 168.22C234.354 166.785 240.028 153.322 239.224 145.623C238.903 142.555 237.164 140.178 235.172 137.885C246.566 136.289 246.393 129.164 246.393 129.164C246.393 129.164 264.662 135.634 264.514 122.874C264.367 110.114 249.957 106.023 241.44 106.157C239.646 106.191 237.868 106.472 236.167 106.991C230.684 108.617 226.438 111.267 219.163 111.372C199.064 111.661 197.134 128.963 197.134 128.963C197.134 128.963 189.98 131.273 188.991 141.879Z" fill="#24272D"/>
<path d="M241.071 140.124L241.074 140.123C243.562 139.168 244.728 136.554 243.679 134.287L241.952 130.552C240.903 128.285 238.036 127.222 235.549 128.178L235.546 128.179C233.059 129.135 231.892 131.748 232.941 134.015L234.668 137.75C235.717 140.017 238.584 141.08 241.071 140.124Z" fill="#F4B835"/>
<path d="M236.658 130.994L239.112 136.289" stroke="#25282D" stroke-miterlimit="10"/>
<path d="M352.007 221.491L321.199 228.97L316.49 230.11C315.249 230.11 314.019 229.888 312.872 229.455C311.724 229.022 310.682 228.387 309.804 227.587C308.926 226.786 308.23 225.836 307.755 224.79C307.281 223.744 307.037 222.623 307.038 221.491H352.007Z" fill="#F6D001"/>
<path d="M290.96 212.87C293.136 212.87 294.9 211.262 294.9 209.279C294.9 207.295 293.136 205.687 290.96 205.687C288.783 205.687 287.019 207.295 287.019 209.279C287.019 211.262 288.783 212.87 290.96 212.87Z" fill="#F6D001"/>
<path d="M344.662 206.586L306.848 233.856L326.049 255.978L363.863 228.708L344.662 206.586Z" fill="#FF9602"/>
<path d="M311.211 234.854L336.46 232.553L344.75 210.667" stroke="white" stroke-miterlimit="10"/>
<path d="M330.262 236.309L326.619 250.55" stroke="white" stroke-miterlimit="10"/>
<path d="M342.07 227.792L358.111 227.835" stroke="white" stroke-miterlimit="10"/>
<path d="M352.004 221.49H307.038C307.037 220.358 307.28 219.237 307.754 218.191C308.229 217.145 308.925 216.194 309.803 215.394C310.681 214.593 311.724 213.958 312.871 213.526C314.019 213.093 315.248 212.871 316.49 212.872L321.199 214.014L352.004 221.49Z" fill="#F7D001"/>
<path d="M107.812 171.662L190.746 219.139C200.686 224.829 207.739 233.886 210.354 244.317C212.969 254.748 210.93 265.699 204.687 274.76C198.444 283.821 188.508 290.25 177.065 292.634C165.622 295.017 153.608 293.159 143.668 287.468L112.686 269.732C104.352 264.962 97.1312 258.742 91.4348 251.427C85.7384 244.113 81.6785 235.847 79.487 227.102C77.2954 218.357 77.0151 209.304 78.6621 200.461C80.3091 191.617 83.8511 183.156 89.0858 175.56C91.0033 172.781 94.0527 170.809 97.5639 170.078C101.075 169.348 104.761 169.917 107.812 171.662Z" fill="#FFC774"/>
<path d="M261.398 200.105L237.886 184.142L232.28 169.392" stroke="white" stroke-miterlimit="10"/>
<path d="M222.906 202.573C222.906 202.573 216.923 199.392 215.375 195.234C213.827 191.076 207.724 172.865 207.724 172.865" stroke="white" stroke-miterlimit="10"/>
<path d="M240.73 263.286L237.449 268.774L240.73 272.575" stroke="white" stroke-miterlimit="10"/>
<mask id="mask1_2_89" style="mask-type:luminance" maskUnits="userSpaceOnUse" x="77" y="169" width="135" height="125">
<path d="M107.529 172.071L190.462 219.547C200.293 225.175 207.265 234.131 209.849 244.439C212.433 254.747 210.417 265.562 204.253 274.509C198.09 283.455 188.277 289.806 176.969 292.162C165.66 294.517 153.782 292.681 143.951 287.053L112.97 269.318C104.691 264.579 97.5172 258.399 91.8588 251.134C86.2004 243.868 82.1685 235.658 79.9922 226.974C77.8159 218.29 77.5379 209.302 79.1729 200.523C80.8078 191.744 84.3238 183.345 89.5195 175.806C91.358 173.141 94.284 171.247 97.6599 170.545C101.037 169.842 104.587 170.389 107.528 172.071C107.528 172.071 107.529 172.071 107.529 172.071Z" fill="white" stroke="white"/>
</mask>
<g mask="url(#mask1_2_89)">
<path d="M223.304 218.712L204.77 235.606" stroke="#F29826" stroke-width="31" stroke-miterlimit="10" stroke-linecap="round"/>
<path d="M227.527 239.456L243.898 254.381" stroke="#F29826" stroke-width="31" stroke-miterlimit="10" stroke-linecap="round"/>
<path d="M138.383 278.539L154.757 293.461" stroke="#F29826" stroke-width="31" stroke-miterlimit="10" stroke-linecap="round"/>
<path d="M183.522 239.456L199.893 254.381" stroke="#F29826" stroke-width="31" stroke-miterlimit="10" stroke-linecap="round"/>
<path d="M183.522 199.344L199.893 214.266" stroke="#F29826" stroke-width="31" stroke-miterlimit="10" stroke-linecap="round"/>
<path d="M156.643 255.661L138.109 238.768" stroke="#F29826" stroke-width="31" stroke-miterlimit="10" stroke-linecap="round"/>
<path d="M200.073 296.325L181.539 279.428" stroke="#F29826" stroke-width="31" stroke-miterlimit="10" stroke-linecap="round"/>
<path d="M133.889 259.512L117.515 274.437" stroke="#F29826" stroke-width="31" stroke-miterlimit="10" stroke-linecap="round"/>
<path d="M224.512 260.585L208.141 275.51" stroke="#F29826" stroke-width="31" stroke-miterlimit="10" stroke-linecap="round"/>
<path d="M178.244 260.585L161.873 275.51" stroke="#F29826" stroke-width="31" stroke-miterlimit="10" stroke-linecap="round"/>
<path d="M177.891 219.4L161.52 234.322" stroke="#F29826" stroke-width="31" stroke-miterlimit="10" stroke-linecap="round"/>
<path d="M135.247 177.682L116.713 194.579" stroke="#F29826" stroke-width="31" stroke-miterlimit="10" stroke-linecap="round"/>
<path d="M139.475 198.426L155.846 213.351" stroke="#F29826" stroke-width="31" stroke-miterlimit="10" stroke-linecap="round"/>
<path d="M50.3316 237.507L66.7051 252.432" stroke="#F29826" stroke-width="31" stroke-miterlimit="10" stroke-linecap="round"/>
<path d="M95.4652 198.426L111.836 213.351" stroke="#F29826" stroke-width="31" stroke-miterlimit="10" stroke-linecap="round"/>
<path d="M95.4652 158.314L111.836 173.239" stroke="#F29826" stroke-width="31" stroke-miterlimit="10" stroke-linecap="round"/>
<path d="M68.5855 214.634L50.052 197.738" stroke="#F29826" stroke-width="31" stroke-miterlimit="10" stroke-linecap="round"/>
<path d="M112.021 255.295L93.4871 238.401" stroke="#F29826" stroke-width="31" stroke-miterlimit="10" stroke-linecap="round"/>
<path d="M136.46 219.558L120.089 234.483" stroke="#F29826" stroke-width="31" stroke-miterlimit="10" stroke-linecap="round"/>
<path d="M90.1922 219.558L73.8215 234.483" stroke="#F29826" stroke-width="31" stroke-miterlimit="10" stroke-linecap="round"/>
<path d="M89.8388 178.37L73.4681 193.295" stroke="#F29826" stroke-width="31" stroke-miterlimit="10" stroke-linecap="round"/>
</g>
<path d="M129.943 184.117L191.526 219.434C191.526 219.434 198.439 223.887 201.62 228.412" stroke="white" stroke-miterlimit="10"/>
<path d="M-25.6263 364.504C-36.485 366.287 -35.4897 374.701 -24.4856 374.701H162.414C190.521 374.701 207.394 340.035 179.407 337.446C178.323 337.345 177.218 337.293 176.09 337.293C153.461 337.293 148.002 353.502 126.279 353.502C104.555 353.502 90.0026 312.648 57.1568 312.648C22.5958 312.648 5.54839 359.385 -25.6263 364.504Z" fill="#FFEB80"/>
<path d="M188.402 62.9096C175.493 65.194 176.78 75.2748 189.889 75.2748H423.076C443.843 75.2748 457.931 53.6699 442.03 40.312C434.841 34.2734 425.986 29.8933 415.421 29.8933C389.953 29.8933 383.809 49.5604 359.362 49.5604C334.914 49.5604 318.537 0 281.568 0C242.674 0 223.484 56.6953 188.402 62.9096Z" fill="#FFEB80"/>
</g>
<defs>
<clipPath id="clip0_2_89">
<rect width="400" height="400" rx="80" fill="white"/>
</clipPath>
</defs>
</svg>
