<svg width="400" height="400" viewBox="0 0 400 400" fill="none" xmlns="http://www.w3.org/2000/svg">
<g clip-path="url(#clip0_2_186)">
<rect width="400" height="400" rx="80" fill="#949494"/>
<path d="M352.207 95.3508H210.721V195.51H352.207V95.3508Z" fill="#888888"/>
<path d="M341.746 107.438V183.429H221.188V107.438H341.746ZM344.185 104.689H218.749V186.178H344.185V104.689Z" fill="#A6A6A6"/>
<path d="M179.643 292.973H114.901V369.033H179.643V292.973Z" fill="#888888"/>
<path d="M335.462 318.317H249.009V363.823H335.462V318.317Z" fill="#888888"/>
<path d="M78.1895 89.3262H-9.51379V199.08H78.1895V89.3262Z" fill="#888888"/>
<path d="M190.479 54.4329H96.604V168.97H190.479V54.4329Z" fill="#888888"/>
<path d="M195.117 188.164H101.29V277.433H195.117V188.164Z" fill="#888888"/>
<path d="M436.958 160.219H372.454V234.677H436.958V160.219Z" fill="#888888"/>
<path d="M407.64 84.676H374.237V142.196H407.64V84.676Z" fill="#888888"/>
<path d="M329.693 48.6667H233.223V84.6191H329.693V48.6667Z" fill="#888888"/>
<path d="M407.638 262.311H372.454V345.631H407.638V262.311Z" fill="#888888"/>
<path d="M356.595 215.787H264.643V302.696H356.595V215.787Z" fill="#888888"/>
<path d="M73.4802 218.284H-32.3182V293.069H73.4802V218.284Z" fill="#888888"/>
<path d="M60.4998 231.592V279.761H-19.3331V231.592H60.4998ZM63.8541 227.812H-22.6874V283.541H63.8541V227.812Z" fill="#A6A6A6"/>
<path d="M337.102 235.164V283.326H284.137V235.164H337.102ZM340.456 231.384H280.783V287.106H340.456V231.384Z" fill="#A6A6A6"/>
<path d="M177.692 206.077V259.518H118.727V206.077H177.692ZM181.047 202.297H115.372V263.298H181.047V202.297Z" fill="#A6A6A6"/>
<path d="M56.2303 115.919V172.49H12.4381V115.919H56.2272M63.8507 107.328H4.81464V181.081H63.8507V107.328Z" fill="#A6A6A6"/>
<path d="M177.195 69.8305V153.57H109.874V69.8305H177.195ZM179.635 67.0813H107.434V156.32H179.635V67.0813Z" fill="#A6A6A6"/>
<path d="M161.578 313.453V348.57H132.96V313.453H161.578ZM166.457 307.955H128.081V354.069H166.457V307.955Z" fill="#A6A6A6"/>
<path d="M397.897 274.48V333.464H382.193V274.48H397.897ZM398.812 273.449H381.278V334.494H398.812V273.449Z" fill="#A6A6A6"/>
<path d="M317.844 60.3661V72.9196H245.091V60.3661H317.844ZM318.759 59.3352H244.177V73.9505H318.759V59.3352Z" fill="#A6A6A6"/>
<path d="M417.048 182.458V212.441H392.348V182.458H417.048ZM422.232 176.616H387.164V218.283H422.232V176.616Z" fill="#A6A6A6"/>
<path d="M100.545 310.53H38.9932V351.483H100.545V310.53Z" fill="#888888"/>
<path d="M156.794 402C230.934 402 291.037 401.226 291.037 400.27C291.037 399.315 230.934 398.541 156.794 398.541C82.6528 398.541 22.5499 399.315 22.5499 400.27C22.5499 401.226 82.6528 402 156.794 402Z" fill="black" fill-opacity="0.25"/>
<path d="M184.63 336.884L167.928 400.193" stroke="#4E4E4E" stroke-width="5" stroke-miterlimit="10"/>
<path d="M198.741 336.884L182.039 400.193" stroke="#4E4E4E" stroke-width="5" stroke-miterlimit="10"/>
<path d="M219.052 336.884L235.754 400.193" stroke="#4E4E4E" stroke-width="5" stroke-miterlimit="10"/>
<path d="M233.163 336.884L249.865 400.193" stroke="#4E4E4E" stroke-width="5" stroke-miterlimit="10"/>
<path d="M192.03 226.155C197.452 226.155 201.848 220.115 201.848 212.665C201.848 205.214 197.452 199.174 192.03 199.174C186.608 199.174 182.212 205.214 182.212 212.665C182.212 220.115 186.608 226.155 192.03 226.155Z" fill="#24272D"/>
<path d="M118.346 284.822C118.346 280.591 123.181 277.186 129.145 277.186C135.109 277.186 139.941 280.603 139.941 284.822" fill="#FFEEBB"/>
<path d="M116.729 273.92H145.808V277.186H118.416C118.106 277.185 117.799 277.119 117.513 276.991C117.226 276.862 116.967 276.674 116.748 276.438C116.529 276.201 116.356 275.921 116.238 275.612C116.12 275.304 116.06 274.973 116.061 274.64C116.063 274.45 116.134 274.268 116.259 274.133C116.384 273.999 116.553 273.922 116.729 273.92Z" fill="#EA8F57"/>
<path d="M143.638 281.171H128.902C127.966 281.171 127.206 281.988 127.206 282.995V282.998C127.206 284.005 127.966 284.822 128.902 284.822H143.638C144.574 284.822 145.333 284.005 145.333 282.998V282.995C145.333 281.988 144.574 281.171 143.638 281.171Z" fill="#EA6F57"/>
<path d="M130.457 274.558H151.952V281.808H134.442C133.385 281.808 132.371 281.356 131.624 280.552C130.876 279.748 130.457 278.657 130.457 277.519V274.558Z" fill="#EA8F57"/>
<path d="M239.124 261.207H226.121V284.795H250.231C256.967 284.795 260.291 275.979 255.454 270.936C246.407 261.501 234.97 250.218 229.397 247.321C219.385 242.114 202.965 241.703 195.752 243.543C188.539 245.382 172.406 263.952 172.406 263.952L142.224 268.559V285.235H169.94C173.416 285.235 176.84 284.338 179.927 282.619L192.525 275.611C192.525 275.611 199.548 287.309 201.35 295.803H234.715C234.715 295.803 232.598 278.951 232.006 269.338" fill="white"/>
<mask id="mask0_2_186" style="mask-type:luminance" maskUnits="userSpaceOnUse" x="142" y="242" width="116" height="54">
<path d="M239.124 261.207H226.121V284.795H250.231C256.967 284.795 260.291 275.979 255.454 270.936C246.407 261.501 234.97 250.218 229.397 247.321C219.385 242.114 202.965 241.703 195.752 243.543C188.539 245.382 172.406 263.952 172.406 263.952L142.224 268.559V285.235H169.94C173.416 285.235 176.84 284.338 179.927 282.619L192.525 275.611C192.525 275.611 199.548 287.309 201.35 295.803H234.715C234.715 295.803 232.598 278.951 232.006 269.338" fill="white"/>
</mask>
<g mask="url(#mask0_2_186)">
<path d="M162.245 270.126L153.966 256.785L145.684 270.126H162.245Z" fill="#FFD700"/>
<path d="M252.963 270.675L244.683 257.334L236.404 270.675H252.963Z" fill="#FFD700"/>
<path d="M191.772 270.126L183.493 256.785L175.214 270.126H191.772Z" fill="#FFD700"/>
<path d="M221.502 270.675L213.22 257.334L204.941 270.675H221.502Z" fill="#FFC774"/>
<path d="M207.114 251.705L198.832 238.367L190.553 251.705H207.114Z" fill="#FFD700"/>
<path d="M177.215 290.566L168.933 277.228L160.654 290.566H177.215Z" fill="#FFD700"/>
<path d="M207.312 291.114L199.03 277.776L190.751 291.114H207.312Z" fill="#FFD700"/>
<path d="M238.634 291.114L230.355 277.776L222.073 291.114H238.634Z" fill="#FFD700"/>
</g>
<path d="M226.121 284.795H250.231C256.967 284.795 260.291 275.979 255.454 270.936C246.407 261.501 234.97 250.218 229.397 247.321C219.385 242.114 202.965 241.703 195.752 243.543C188.539 245.382 172.406 263.952 172.406 263.952L142.224 268.559V285.235H169.94C173.416 285.235 176.84 284.338 179.927 282.619L192.525 275.611C192.525 275.611 199.548 287.309 201.35 295.803H234.715C234.715 295.803 234.387 294.452 233.434 284.827" stroke="#25282D" stroke-miterlimit="10"/>
<path d="M239.122 261.207H226.121" stroke="#25282D" stroke-width="3" stroke-miterlimit="10"/>
<path d="M241.637 325.666H176.082V337.384H241.637V325.666Z" fill="#F29826"/>
<path d="M181.137 400.27H209.581L213.167 400.228L210.423 387.835L197.554 388.953L181.137 400.27Z" fill="#363636"/>
<path d="M116.151 382.748L140.628 398.344L143.733 400.27L149.747 382.566L136.793 381.033L116.151 382.748Z" fill="#363636"/>
<path d="M206.844 250.044C205.384 250.043 203.964 249.53 202.8 248.582C201.636 247.634 200.79 246.304 200.393 244.792L194.16 221.13C193.909 220.214 193.829 219.254 193.925 218.305C194.021 217.356 194.291 216.437 194.72 215.601C195.148 214.765 195.726 214.029 196.421 213.435C197.115 212.841 197.912 212.401 198.766 212.141C199.619 211.881 200.512 211.806 201.393 211.919C202.274 212.033 203.125 212.333 203.898 212.803C204.67 213.273 205.348 213.903 205.892 214.657C206.436 215.411 206.836 216.273 207.069 217.194L213.301 240.857C213.541 241.769 213.612 242.723 213.509 243.665C213.407 244.606 213.133 245.517 212.703 246.345C212.274 247.172 211.697 247.901 211.006 248.489C210.314 249.076 209.522 249.512 208.674 249.77C208.079 249.951 207.463 250.043 206.844 250.044Z" fill="#EA8F57"/>
<path d="M200.714 239.538L199.544 239.886C198.181 240.292 196.751 240.369 195.357 240.113C193.964 239.857 192.639 239.273 191.479 238.403C190.318 237.534 189.35 236.4 188.644 235.082C187.937 233.764 187.509 232.295 187.389 230.779L186.795 223.27C186.604 220.845 187.213 218.424 188.515 216.434C189.818 214.444 191.731 213.012 193.918 212.388C196.385 211.686 199.011 212.066 201.218 213.446C203.425 214.827 205.032 217.093 205.685 219.748L207.446 226.909C208.094 229.544 207.751 232.347 206.491 234.711C205.231 237.076 203.155 238.81 200.714 239.538Z" fill="#EA8F57"/>
<path d="M191.505 224.134L189.846 230.747L192.273 230.797" stroke="#25282D" stroke-miterlimit="10"/>
<path d="M194.431 226.705C195.081 226.705 195.609 226.138 195.609 225.438C195.609 224.738 195.081 224.171 194.431 224.171C193.781 224.171 193.254 224.738 193.254 225.438C193.254 226.138 193.781 226.705 194.431 226.705Z" fill="#24272D"/>
<path d="M188.773 226.705C189.423 226.705 189.95 226.138 189.95 225.438C189.95 224.738 189.423 224.171 188.773 224.171C188.122 224.171 187.595 224.738 187.595 225.438C187.595 226.138 188.122 226.705 188.773 226.705Z" fill="#24272D"/>
<path d="M194.767 233.303C194.767 233.303 196.21 233.218 196.807 231.867" stroke="#25282D" stroke-miterlimit="10"/>
<path d="M249.153 232.203C250.45 248.6 237.563 243.269 237.563 243.269C237.563 243.269 245.798 261.267 227.368 259.763C208.938 258.26 203.909 244.172 204.624 236.118C204.908 232.907 206.46 230.421 208.214 228.022C198.114 226.349 198.267 218.897 198.267 218.897C198.267 218.897 182.073 225.664 182.205 212.314C182.337 198.963 195.109 194.682 202.657 194.824C204.248 194.859 205.824 195.153 207.332 195.695C212.19 197.397 215.956 200.175 222.406 200.28C240.218 200.583 241.935 218.685 241.935 218.685C241.935 218.685 248.276 221.107 249.153 232.203Z" fill="#24272D"/>
<path d="M210.205 223.981C211.136 221.607 210.102 218.872 207.896 217.871C205.69 216.871 203.148 217.984 202.218 220.358L200.688 224.263C199.758 226.637 200.792 229.372 202.997 230.373C205.203 231.373 207.745 230.26 208.675 227.886L210.205 223.981Z" fill="#EA8F57"/>
<path d="M206.9 220.813L204.725 226.354" stroke="#25282D" stroke-miterlimit="10"/>
<path opacity="0.68" d="M211.547 263.947L222.545 252.115C225.311 249.138 229.063 247.466 232.976 247.465H245.946L248.313 244.917C250.193 242.895 252.743 241.759 255.401 241.758H263.775C265.242 241.759 266.648 242.386 267.685 243.502C268.723 244.618 269.306 246.131 269.306 247.709C269.305 249.287 268.721 250.8 267.684 251.916C266.646 253.031 265.239 253.658 263.773 253.658H231.955C229.996 253.658 228.056 254.073 226.246 254.88C224.436 255.686 222.792 256.869 221.407 258.359L215.283 264.948" fill="#CBCFD3"/>
<path d="M228.731 262.484H238.553" stroke="white" stroke-width="3" stroke-miterlimit="10" stroke-linecap="square"/>
<path d="M229.395 295.799H175.534C171.493 295.799 167.541 297.074 164.167 299.467C160.793 301.86 158.146 305.266 156.553 309.261L129.531 377.091L153.146 389.038L180.158 325.666H227.9L229.395 295.799Z" fill="#F7D001"/>
<path d="M229.397 295.796V325.663H214.395V388.846H189.108V314.242C189.108 309.35 190.914 304.659 194.129 301.199C197.343 297.74 201.703 295.797 206.25 295.796H229.397Z" fill="#F7D001"/>
<path d="M189.108 325.666V314.242C189.108 309.35 190.914 304.659 194.129 301.199C197.343 297.74 201.703 295.797 206.25 295.796" stroke="white" stroke-miterlimit="10" stroke-linecap="square"/>
<path d="M230.304 292.453H241.639V329.417H219.928V303.616C219.928 300.656 221.022 297.816 222.967 295.723C224.913 293.629 227.552 292.453 230.304 292.453Z" fill="#F29826"/>
<path d="M223.535 266.135H225.288C225.628 266.135 225.964 266.206 226.278 266.346C226.592 266.485 226.877 266.69 227.118 266.948C227.358 267.206 227.549 267.513 227.679 267.85C227.809 268.188 227.877 268.55 227.877 268.915V276.519C227.877 277.257 227.605 277.965 227.119 278.487C226.634 279.008 225.977 279.302 225.291 279.302H223.537V266.135H223.535Z" fill="white"/>
<path d="M213.127 271.815L215.39 274.411L217.685 271.78" stroke="white" stroke-width="23" stroke-miterlimit="10" stroke-linecap="round"/>
<path d="M72.0316 285.302L41.718 400.193" stroke="#4E4E4E" stroke-width="5" stroke-miterlimit="10"/>
<path d="M220.535 261.513H210.277C208.62 261.513 207.277 262.856 207.277 264.513V282.228C207.277 283.885 208.62 285.228 210.277 285.228H220.535C222.192 285.228 223.535 283.885 223.535 282.228V264.513C223.535 262.856 222.192 261.513 220.535 261.513Z" fill="#2E2E2E"/>
<path d="M104.862 285.302L74.5508 400.193" stroke="#4E4E4E" stroke-width="5" stroke-miterlimit="10"/>
<path d="M227.093 263.263H223.317C221.496 263.263 220.019 264.852 220.019 266.812V278.63C220.019 280.59 221.496 282.179 223.317 282.179H227.093C228.915 282.179 230.392 280.59 230.392 278.63V266.812C230.392 264.852 228.915 263.263 227.093 263.263Z" fill="#2E2E2E"/>
<path d="M260.078 285.186L290.42 400.193" stroke="#4E4E4E" stroke-width="5" stroke-miterlimit="10"/>
<path d="M227.213 285.186L257.557 400.193" stroke="#4E4E4E" stroke-width="5" stroke-miterlimit="10"/>
<path d="M225.992 265.52C224.789 266.67 224.407 278.356 225.992 279.21C227.576 280.063 236.087 278.6 236.087 272.156C236.087 265.712 227.713 263.875 225.992 265.52Z" fill="#EA8F57"/>
<path d="M193.344 260.99L190.424 270.364L192.525 275.605" stroke="#25282D" stroke-miterlimit="10"/>
<path d="M146.793 211.019V261.565C146.793 262.357 146.501 263.117 145.98 263.677C145.459 264.237 144.753 264.552 144.017 264.552H142.167C142.903 264.552 143.609 264.237 144.129 263.677C144.65 263.117 144.942 262.357 144.942 261.565V211.019C144.942 210.227 144.65 209.468 144.129 208.908C143.609 208.347 142.903 208.033 142.167 208.033H144.017C144.753 208.033 145.459 208.347 145.98 208.908C146.501 209.468 146.793 210.227 146.793 211.019Z" fill="#24272D"/>
<path d="M142.167 208.033H57.6058C56.0726 208.033 54.8298 209.37 54.8298 211.019V261.565C54.8298 263.215 56.0726 264.552 57.6058 264.552H142.167C143.7 264.552 144.943 263.215 144.943 261.565V211.019C144.943 209.37 143.7 208.033 142.167 208.033Z" fill="#F29826"/>
<path d="M101.737 230.911C104.468 230.911 106.683 228.529 106.683 225.59C106.683 222.651 104.468 220.268 101.737 220.268C99.0053 220.268 96.791 222.651 96.791 225.59C96.791 228.529 99.0053 230.911 101.737 230.911Z" fill="white"/>
<path d="M105.949 215.206C105.949 215.206 105.982 217.162 104.883 218.344C103.784 219.527 101.966 219.492 101.966 219.492C101.966 219.492 101.931 217.536 103.032 216.353C104.133 215.171 105.949 215.206 105.949 215.206Z" fill="white"/>
<path d="M95.787 285.23H77.5164L91.1164 239.152H109.387L95.787 285.23Z" fill="#F29826"/>
<path d="M83.619 264.552L91.1164 239.152H109.387" stroke="white" stroke-width="3" stroke-miterlimit="10"/>
<path d="M101.892 264.552H109.387V239.152L101.892 264.552Z" fill="#24272D"/>
<path d="M108.344 281.808H84.808V284.82H108.344V281.808Z" fill="#72A065"/>
<path d="M44.4731 285.23H280.856" stroke="#4E4E4E" stroke-width="5" stroke-miterlimit="10"/>
<path d="M96.5758 264.552C96.5171 264.769 96.4476 264.983 96.3676 265.192C95.3243 267.91 92.7889 269.358 90.7023 268.427C89.3143 267.808 88.4746 266.294 88.3751 264.547C88.3282 263.617 88.4777 262.688 88.8123 261.829C89.8556 259.111 92.3933 257.663 94.4799 258.594C96.3907 259.45 97.2698 262.026 96.5758 264.552Z" fill="white"/>
<path d="M96.5758 264.552H88.3636C88.3166 263.622 88.4661 262.693 88.8008 261.834C89.8441 259.116 92.3818 257.668 94.4684 258.598C96.3907 259.45 97.2698 262.026 96.5758 264.552Z" fill="#24272D"/>
<path d="M121.284 282.741C122.282 282.741 123.091 281.871 123.091 280.797C123.091 279.724 122.282 278.854 121.284 278.854C120.286 278.854 119.478 279.724 119.478 280.797C119.478 281.871 120.286 282.741 121.284 282.741Z" fill="#FFEEBB"/>
<path d="M175.228 325.666H180.158L180.373 320.987" stroke="white" stroke-miterlimit="10"/>
<path d="M209.253 324.795L214.395 325.664V320.228" stroke="white" stroke-miterlimit="10"/>
</g>
<defs>
<clipPath id="clip0_2_186">
<rect width="400" height="400" rx="80" fill="white"/>
</clipPath>
</defs>
</svg>
